<svg xmlns="http://www.w3.org/2000/svg" xmlns:xlink="http://www.w3.org/1999/xlink" width="800" zoomAndPan="magnify" viewBox="0 0 600 149.999998" height="200" preserveAspectRatio="xMidYMid meet" version="1.0"><defs><g/><clipPath id="56321a39cf"><path d="M 138 40.132812 L 166 40.132812 L 166 98 L 138 98 Z M 138 40.132812 " clip-rule="nonzero"/></clipPath><clipPath id="891ecd35cb"><path d="M 194 57 L 237 57 L 237 109.882812 L 194 109.882812 Z M 194 57 " clip-rule="nonzero"/></clipPath><clipPath id="64f9ae7927"><path d="M 239 56 L 276 56 L 276 98 L 239 98 Z M 239 56 " clip-rule="nonzero"/></clipPath><clipPath id="bb1d3e70e5"><rect x="0" width="245" y="0" height="78"/></clipPath></defs><path fill="#000000" d="M 166.828125 75.671875 L 166.828125 97.230469 L 177.914062 97.230469 L 177.914062 75.683594 C 178.054688 74.449219 179.136719 69.074219 184.878906 68.925781 C 190.625 68.777344 190.875 66.035156 191.175781 63.410156 L 191.824219 57.742188 C 166.855469 55.078125 166.855469 75.34375 166.851562 75.40625 Z M 166.828125 75.671875 " fill-opacity="1" fill-rule="nonzero"/><path fill="#000000" d="M 92.101562 62.019531 C 92.101562 62.839844 91.964844 63.636719 91.683594 64.410156 C 91.398438 65.179688 91.027344 65.8125 90.570312 66.300781 L 73.960938 88.359375 L 91.71875 88.359375 L 91.71875 97.230469 L 60.265625 97.230469 L 60.265625 92.371094 C 60.265625 91.882812 60.394531 91.265625 60.648438 90.519531 C 60.90625 89.773438 61.289062 89.078125 61.800781 88.4375 L 78.5625 66.109375 L 61.339844 66.109375 L 61.339844 57.234375 L 92.101562 57.234375 Z M 92.101562 62.019531 " fill-opacity="1" fill-rule="nonzero"/><g clip-path="url(#56321a39cf)"><path fill="#000000" d="M 144.015625 97.230469 L 144.015625 65.546875 L 141.40625 65.007812 C 140.511719 64.804688 139.78125 64.484375 139.21875 64.046875 C 138.679688 63.613281 138.414062 62.972656 138.414062 62.125 L 138.414062 57.4375 L 144.015625 57.4375 L 144.015625 55.167969 C 144.015625 52.886719 144.378906 50.824219 145.09375 48.976562 C 145.835938 47.132812 146.886719 45.554688 148.242188 44.246094 C 149.621094 42.941406 151.300781 41.925781 153.269531 41.210938 C 155.242188 40.492188 157.480469 40.132812 159.988281 40.132812 C 160.964844 40.132812 161.859375 40.199219 162.679688 40.324219 C 163.496094 40.429688 164.355469 40.609375 165.25 40.863281 L 165.019531 46.667969 C 164.992188 47.082031 164.890625 47.425781 164.710938 47.707031 C 164.535156 47.964844 164.289062 48.183594 163.984375 48.363281 C 163.703125 48.515625 163.394531 48.628906 163.0625 48.707031 C 162.726562 48.785156 162.394531 48.824219 162.0625 48.824219 C 161.011719 48.824219 160.078125 48.925781 159.261719 49.128906 C 158.441406 49.335938 157.75 49.707031 157.1875 50.246094 C 156.648438 50.757812 156.242188 51.449219 155.960938 52.324219 C 155.675781 53.167969 155.535156 54.246094 155.535156 55.550781 L 155.535156 57.4375 L 164.867188 57.4375 L 164.867188 65.585938 L 155.921875 65.585938 L 155.921875 97.230469 Z M 144.015625 97.230469 " fill-opacity="1" fill-rule="nonzero"/></g><g clip-path="url(#891ecd35cb)"><path fill="#000000" d="M 236.554688 57.234375 L 215.179688 107.546875 C 214.820312 108.34375 214.382812 108.921875 213.871094 109.28125 C 213.355469 109.667969 212.53125 109.859375 211.398438 109.859375 L 202.449219 109.859375 L 210.164062 93.679688 L 194.195312 57.234375 L 204.765625 57.234375 C 205.691406 57.234375 206.398438 57.441406 206.886719 57.851562 C 207.402344 58.265625 207.773438 58.753906 208.007812 59.316406 L 214.5625 76.535156 C 215.179688 78.101562 215.683594 79.710938 216.070312 81.351562 C 216.351562 80.53125 216.636719 79.710938 216.917969 78.886719 C 217.199219 78.066406 217.496094 77.257812 217.804688 76.460938 L 223.746094 59.316406 C 223.980469 58.726562 224.390625 58.238281 224.980469 57.851562 C 225.574219 57.441406 226.214844 57.234375 226.910156 57.234375 Z M 236.554688 57.234375 " fill-opacity="1" fill-rule="nonzero"/></g><g clip-path="url(#64f9ae7927)"><path fill="#000000" d="M 250.945312 61.636719 C 251.710938 60.917969 252.503906 60.25 253.320312 59.632812 C 254.140625 59.019531 255.007812 58.503906 255.929688 58.09375 C 256.875 57.660156 257.882812 57.328125 258.957031 57.09375 C 260.058594 56.835938 261.246094 56.710938 262.523438 56.710938 C 264.699219 56.710938 266.613281 57.09375 268.277344 57.863281 C 269.964844 58.609375 271.382812 59.660156 272.53125 61.019531 C 273.683594 62.355469 274.554688 63.957031 275.140625 65.828125 C 275.730469 67.675781 276.023438 69.691406 276.023438 71.871094 L 276.023438 97.230469 L 264.136719 97.230469 L 264.136719 71.871094 C 264.136719 69.921875 263.6875 68.40625 262.792969 67.332031 C 261.898438 66.226562 260.582031 65.675781 258.84375 65.675781 C 257.539062 65.675781 256.3125 65.957031 255.164062 66.523438 C 254.035156 67.0625 252.9375 67.804688 251.863281 68.753906 L 251.863281 97.230469 L 239.976562 97.230469 L 239.976562 57.328125 L 247.339844 57.328125 C 248.820312 57.328125 249.792969 57.992188 250.253906 59.328125 Z M 250.945312 61.636719 " fill-opacity="1" fill-rule="nonzero"/></g><path fill="#000000" d="M 116.910156 57.234375 C 119.839844 57.234375 122.507812 57.695312 124.917969 58.617188 C 127.324219 59.539062 129.398438 60.863281 131.121094 62.582031 C 132.847656 64.300781 134.1875 66.394531 135.144531 68.847656 C 136.097656 71.3125 136.570312 74.066406 136.570312 77.132812 C 136.570312 80.234375 136.097656 83.015625 135.144531 85.507812 C 134.1875 87.984375 132.847656 90.089844 131.121094 91.824219 C 129.398438 93.554688 127.324219 94.886719 124.917969 95.824219 C 122.507812 96.753906 119.839844 97.230469 116.910156 97.230469 C 113.957031 97.230469 111.277344 96.753906 108.855469 95.824219 C 106.4375 94.886719 104.351562 93.554688 102.601562 91.824219 C 100.851562 90.089844 99.5 87.984375 98.542969 85.507812 C 97.585938 83.015625 97.101562 80.234375 97.101562 77.132812 C 97.101562 74.066406 97.585938 71.3125 98.542969 68.847656 C 99.5 66.390625 100.851562 64.300781 102.601562 62.582031 C 104.351562 60.863281 106.4375 59.539062 108.855469 58.617188 C 111.277344 57.695312 113.957031 57.234375 116.910156 57.234375 Z M 116.910156 65.847656 C 114.179688 65.847656 112.183594 66.78125 110.917969 68.648438 C 109.652344 70.515625 109.019531 73.371094 109.019531 77.207031 C 109.019531 81.058594 109.652344 83.921875 110.917969 85.804688 C 112.183594 87.683594 114.179688 88.621094 116.910156 88.621094 C 119.566406 88.621094 121.53125 87.683594 122.78125 85.804688 C 124.035156 83.921875 124.65625 81.058594 124.65625 77.207031 C 124.65625 73.371094 124.035156 70.515625 122.78125 68.648438 C 121.53125 66.78125 119.566406 65.847656 116.910156 65.847656 Z M 116.910156 65.847656 " fill-opacity="1" fill-rule="nonzero"/><path fill="#d9f323" d="M 37.136719 57.296875 C 43.773438 57.128906 50.621094 57.359375 58.6875 57.359375 C 57.320312 61.554688 56.175781 63.644531 54.890625 67.847656 L 54.90625 67.941406 C 55.761719 72.25 56.84375 77.699219 55.617188 82.878906 C 53.15625 93.269531 43.117188 98.703125 31.175781 96.882812 C 21.65625 95.429688 14.765625 86.890625 15.015625 76.835938 C 15.25 67.363281 21.234375 59.808594 30.03125 57.886719 C 31.777344 57.464844 33.644531 57.257812 35.632812 57.257812 C 36.140625 57.257812 36.644531 57.269531 37.136719 57.296875 Z M 35.574219 65.847656 C 32.851562 65.847656 30.855469 66.78125 29.59375 68.652344 C 28.332031 70.519531 27.699219 73.371094 27.699219 77.207031 C 27.699219 81.058594 28.332031 83.921875 29.59375 85.804688 C 30.855469 87.683594 32.851562 88.621094 35.574219 88.621094 C 38.226562 88.621094 40.183594 87.683594 41.433594 85.804688 C 42.683594 83.921875 43.304688 81.058594 43.304688 77.207031 C 43.304688 73.371094 42.683594 70.519531 41.433594 68.652344 C 40.183594 66.78125 38.226562 65.847656 35.574219 65.847656 Z M 35.574219 65.847656 " fill-opacity="1" fill-rule="nonzero"/><path fill="#000000" d="M 117.011719 57.234375 C 118.894531 57.234375 120.671875 57.429688 122.339844 57.808594 C 127.269531 58.539062 131.410156 61.621094 134.515625 65.539062 C 135.714844 67.046875 136.554688 68.820312 136.894531 70.722656 C 137.5625 74.472656 138.046875 78.757812 137.070312 82.875 C 134.601562 93.265625 124.523438 98.703125 112.539062 96.882812 C 102.984375 95.429688 96.070312 86.882812 96.320312 76.828125 C 96.554688 67.335938 102.582031 59.765625 111.4375 57.855469 C 113.175781 57.441406 115.03125 57.234375 117.011719 57.234375 Z M 116.957031 65.832031 C 114.21875 65.832031 112.21875 66.769531 110.953125 68.636719 C 109.6875 70.507812 109.050781 73.359375 109.050781 77.199219 C 109.050781 81.050781 109.6875 83.914062 110.953125 85.796875 C 112.21875 87.679688 114.21875 88.617188 116.957031 88.617188 C 119.613281 88.617188 121.582031 87.679688 122.832031 85.796875 C 124.089844 83.914062 124.710938 81.050781 124.710938 77.199219 C 124.710938 73.359375 124.089844 70.507812 122.832031 68.636719 C 121.578125 66.769531 119.613281 65.832031 116.957031 65.832031 Z M 116.957031 65.832031 " fill-opacity="1" fill-rule="nonzero"/><path stroke-linecap="butt" transform="matrix(0, 0.75, -0.75, 0, 313.447458, 40.136718)" fill="none" stroke-linejoin="miter" d="M 0.000000495078 1.997652 L 92.979173 1.997652 " stroke="#000000" stroke-width="4" stroke-opacity="1" stroke-miterlimit="4"/><g transform="matrix(1, 0, 0, 1, 336, 36)"><g clip-path="url(#bb1d3e70e5)"><g fill="#000000" fill-opacity="1"><g transform="translate(0.290522, 31.884416)"><g><path d="M 16.578125 -14.421875 C 16.578125 -13.378906 16.328125 -12.394531 15.828125 -11.46875 C 15.335938 -10.539062 14.550781 -9.785156 13.46875 -9.203125 C 12.382812 -8.617188 11 -8.328125 9.3125 -8.328125 L 5.578125 -8.328125 L 5.578125 0 L 2.21875 0 L 2.21875 -20.53125 L 9.3125 -20.53125 C 10.882812 -20.53125 12.21875 -20.257812 13.3125 -19.71875 C 14.40625 -19.175781 15.222656 -18.441406 15.765625 -17.515625 C 16.304688 -16.585938 16.578125 -15.554688 16.578125 -14.421875 Z M 9.3125 -11.078125 C 10.59375 -11.078125 11.546875 -11.367188 12.171875 -11.953125 C 12.804688 -12.535156 13.125 -13.359375 13.125 -14.421875 C 13.125 -16.660156 11.851562 -17.78125 9.3125 -17.78125 L 5.578125 -17.78125 L 5.578125 -11.078125 Z M 9.3125 -11.078125 "/></g></g></g><g fill="#000000" fill-opacity="1"><g transform="translate(17.719501, 31.884416)"><g><path d="M 5.578125 -13.921875 C 6.078125 -14.742188 6.734375 -15.382812 7.546875 -15.84375 C 8.367188 -16.3125 9.335938 -16.546875 10.453125 -16.546875 L 10.453125 -13.0625 L 9.609375 -13.0625 C 8.285156 -13.0625 7.28125 -12.722656 6.59375 -12.046875 C 5.914062 -11.378906 5.578125 -10.21875 5.578125 -8.5625 L 5.578125 0 L 2.21875 0 L 2.21875 -16.28125 L 5.578125 -16.28125 Z M 5.578125 -13.921875 "/></g></g></g><g fill="#000000" fill-opacity="1"><g transform="translate(28.915377, 31.884416)"><g><path d="M 17.140625 -8.546875 C 17.140625 -7.929688 17.097656 -7.378906 17.015625 -6.890625 L 4.578125 -6.890625 C 4.679688 -5.585938 5.164062 -4.539062 6.03125 -3.75 C 6.894531 -2.96875 7.957031 -2.578125 9.21875 -2.578125 C 11.03125 -2.578125 12.3125 -3.332031 13.0625 -4.84375 L 16.6875 -4.84375 C 16.195312 -3.34375 15.304688 -2.113281 14.015625 -1.15625 C 12.722656 -0.207031 11.125 0.265625 9.21875 0.265625 C 7.664062 0.265625 6.269531 -0.0820312 5.03125 -0.78125 C 3.800781 -1.476562 2.835938 -2.460938 2.140625 -3.734375 C 1.441406 -5.003906 1.09375 -6.476562 1.09375 -8.15625 C 1.09375 -9.832031 1.429688 -11.304688 2.109375 -12.578125 C 2.785156 -13.847656 3.738281 -14.828125 4.96875 -15.515625 C 6.207031 -16.203125 7.625 -16.546875 9.21875 -16.546875 C 10.75 -16.546875 12.113281 -16.207031 13.3125 -15.53125 C 14.519531 -14.863281 15.457031 -13.925781 16.125 -12.71875 C 16.800781 -11.507812 17.140625 -10.117188 17.140625 -8.546875 Z M 13.625 -9.609375 C 13.601562 -10.847656 13.15625 -11.835938 12.28125 -12.578125 C 11.414062 -13.328125 10.347656 -13.703125 9.078125 -13.703125 C 7.910156 -13.703125 6.910156 -13.332031 6.078125 -12.59375 C 5.253906 -11.863281 4.765625 -10.867188 4.609375 -9.609375 Z M 13.625 -9.609375 "/></g></g></g><g fill="#000000" fill-opacity="1"><g transform="translate(46.994242, 31.884416)"><g><path d="M 1.09375 -8.15625 C 1.09375 -9.832031 1.429688 -11.304688 2.109375 -12.578125 C 2.785156 -13.847656 3.722656 -14.828125 4.921875 -15.515625 C 6.128906 -16.203125 7.515625 -16.546875 9.078125 -16.546875 C 11.046875 -16.546875 12.671875 -16.078125 13.953125 -15.140625 C 15.242188 -14.203125 16.117188 -12.867188 16.578125 -11.140625 L 12.9375 -11.140625 C 12.644531 -11.941406 12.171875 -12.566406 11.515625 -13.015625 C 10.867188 -13.472656 10.054688 -13.703125 9.078125 -13.703125 C 7.691406 -13.703125 6.585938 -13.210938 5.765625 -12.234375 C 4.953125 -11.265625 4.546875 -9.90625 4.546875 -8.15625 C 4.546875 -6.40625 4.953125 -5.035156 5.765625 -4.046875 C 6.585938 -3.066406 7.691406 -2.578125 9.078125 -2.578125 C 11.023438 -2.578125 12.3125 -3.429688 12.9375 -5.140625 L 16.578125 -5.140625 C 16.097656 -3.484375 15.207031 -2.164062 13.90625 -1.1875 C 12.613281 -0.21875 11.003906 0.265625 9.078125 0.265625 C 7.515625 0.265625 6.128906 -0.0820312 4.921875 -0.78125 C 3.722656 -1.476562 2.785156 -2.460938 2.109375 -3.734375 C 1.429688 -5.003906 1.09375 -6.476562 1.09375 -8.15625 Z M 1.09375 -8.15625 "/></g></g></g><g fill="#000000" fill-opacity="1"><g transform="translate(64.570915, 31.884416)"><g><path d="M 3.9375 -18.4375 C 3.320312 -18.4375 2.804688 -18.640625 2.390625 -19.046875 C 1.972656 -19.460938 1.765625 -19.976562 1.765625 -20.59375 C 1.765625 -21.207031 1.972656 -21.71875 2.390625 -22.125 C 2.804688 -22.539062 3.320312 -22.75 3.9375 -22.75 C 4.519531 -22.75 5.019531 -22.539062 5.4375 -22.125 C 5.851562 -21.71875 6.0625 -21.207031 6.0625 -20.59375 C 6.0625 -19.976562 5.851562 -19.460938 5.4375 -19.046875 C 5.019531 -18.640625 4.519531 -18.4375 3.9375 -18.4375 Z M 5.578125 -16.28125 L 5.578125 0 L 2.21875 0 L 2.21875 -16.28125 Z M 5.578125 -16.28125 "/></g></g></g><g fill="#000000" fill-opacity="1"><g transform="translate(72.2219, 31.884416)"><g><path d="M 8.125 0.265625 C 6.84375 0.265625 5.691406 0.0351562 4.671875 -0.421875 C 3.660156 -0.890625 2.859375 -1.519531 2.265625 -2.3125 C 1.679688 -3.113281 1.367188 -4.007812 1.328125 -5 L 4.8125 -5 C 4.875 -4.300781 5.203125 -3.722656 5.796875 -3.265625 C 6.398438 -2.804688 7.15625 -2.578125 8.0625 -2.578125 C 9.007812 -2.578125 9.742188 -2.753906 10.265625 -3.109375 C 10.785156 -3.472656 11.046875 -3.941406 11.046875 -4.515625 C 11.046875 -5.128906 10.753906 -5.582031 10.171875 -5.875 C 9.597656 -6.175781 8.679688 -6.503906 7.421875 -6.859375 C 6.191406 -7.191406 5.191406 -7.515625 4.421875 -7.828125 C 3.660156 -8.140625 3 -8.617188 2.4375 -9.265625 C 1.875 -9.921875 1.59375 -10.78125 1.59375 -11.84375 C 1.59375 -12.707031 1.847656 -13.5 2.359375 -14.21875 C 2.867188 -14.945312 3.601562 -15.515625 4.5625 -15.921875 C 5.519531 -16.335938 6.617188 -16.546875 7.859375 -16.546875 C 9.710938 -16.546875 11.203125 -16.078125 12.328125 -15.140625 C 13.460938 -14.203125 14.070312 -12.925781 14.15625 -11.3125 L 10.78125 -11.3125 C 10.726562 -12.039062 10.429688 -12.617188 9.890625 -13.046875 C 9.359375 -13.484375 8.640625 -13.703125 7.734375 -13.703125 C 6.847656 -13.703125 6.171875 -13.535156 5.703125 -13.203125 C 5.234375 -12.867188 5 -12.425781 5 -11.875 C 5 -11.445312 5.15625 -11.082031 5.46875 -10.78125 C 5.78125 -10.488281 6.160156 -10.257812 6.609375 -10.09375 C 7.066406 -9.925781 7.738281 -9.710938 8.625 -9.453125 C 9.8125 -9.140625 10.78125 -8.816406 11.53125 -8.484375 C 12.289062 -8.160156 12.945312 -7.679688 13.5 -7.046875 C 14.050781 -6.421875 14.335938 -5.585938 14.359375 -4.546875 C 14.359375 -3.617188 14.101562 -2.789062 13.59375 -2.0625 C 13.082031 -1.332031 12.359375 -0.757812 11.421875 -0.34375 C 10.484375 0.0625 9.382812 0.265625 8.125 0.265625 Z M 8.125 0.265625 "/></g></g></g><g fill="#000000" fill-opacity="1"><g transform="translate(87.84889, 31.884416)"><g><path d="M 3.9375 -18.4375 C 3.320312 -18.4375 2.804688 -18.640625 2.390625 -19.046875 C 1.972656 -19.460938 1.765625 -19.976562 1.765625 -20.59375 C 1.765625 -21.207031 1.972656 -21.71875 2.390625 -22.125 C 2.804688 -22.539062 3.320312 -22.75 3.9375 -22.75 C 4.519531 -22.75 5.019531 -22.539062 5.4375 -22.125 C 5.851562 -21.71875 6.0625 -21.207031 6.0625 -20.59375 C 6.0625 -19.976562 5.851562 -19.460938 5.4375 -19.046875 C 5.019531 -18.640625 4.519531 -18.4375 3.9375 -18.4375 Z M 5.578125 -16.28125 L 5.578125 0 L 2.21875 0 L 2.21875 -16.28125 Z M 5.578125 -16.28125 "/></g></g></g><g fill="#000000" fill-opacity="1"><g transform="translate(95.499875, 31.884416)"><g><path d="M 9.28125 0.265625 C 7.738281 0.265625 6.347656 -0.0820312 5.109375 -0.78125 C 3.867188 -1.476562 2.894531 -2.460938 2.1875 -3.734375 C 1.476562 -5.003906 1.125 -6.476562 1.125 -8.15625 C 1.125 -9.8125 1.488281 -11.28125 2.21875 -12.5625 C 2.945312 -13.84375 3.941406 -14.828125 5.203125 -15.515625 C 6.460938 -16.203125 7.867188 -16.546875 9.421875 -16.546875 C 10.984375 -16.546875 12.394531 -16.203125 13.65625 -15.515625 C 14.914062 -14.828125 15.910156 -13.84375 16.640625 -12.5625 C 17.367188 -11.28125 17.734375 -9.8125 17.734375 -8.15625 C 17.734375 -6.5 17.359375 -5.03125 16.609375 -3.75 C 15.859375 -2.46875 14.835938 -1.476562 13.546875 -0.78125 C 12.253906 -0.0820312 10.832031 0.265625 9.28125 0.265625 Z M 9.28125 -2.65625 C 10.144531 -2.65625 10.957031 -2.863281 11.71875 -3.28125 C 12.476562 -3.695312 13.09375 -4.316406 13.5625 -5.140625 C 14.03125 -5.960938 14.265625 -6.96875 14.265625 -8.15625 C 14.265625 -9.332031 14.035156 -10.328125 13.578125 -11.140625 C 13.128906 -11.960938 12.53125 -12.582031 11.78125 -13 C 11.039062 -13.414062 10.234375 -13.625 9.359375 -13.625 C 8.492188 -13.625 7.691406 -13.414062 6.953125 -13 C 6.210938 -12.582031 5.625 -11.960938 5.1875 -11.140625 C 4.757812 -10.328125 4.546875 -9.332031 4.546875 -8.15625 C 4.546875 -6.40625 4.992188 -5.050781 5.890625 -4.09375 C 6.785156 -3.132812 7.914062 -2.65625 9.28125 -2.65625 Z M 9.28125 -2.65625 "/></g></g></g><g fill="#000000" fill-opacity="1"><g transform="translate(114.199095, 31.884416)"><g><path d="M 10.4375 -16.546875 C 11.707031 -16.546875 12.847656 -16.28125 13.859375 -15.75 C 14.878906 -15.21875 15.675781 -14.425781 16.25 -13.375 C 16.820312 -12.332031 17.109375 -11.078125 17.109375 -9.609375 L 17.109375 0 L 13.765625 0 L 13.765625 -9.09375 C 13.765625 -10.550781 13.398438 -11.671875 12.671875 -12.453125 C 11.941406 -13.234375 10.945312 -13.625 9.6875 -13.625 C 8.425781 -13.625 7.425781 -13.234375 6.6875 -12.453125 C 5.945312 -11.671875 5.578125 -10.550781 5.578125 -9.09375 L 5.578125 0 L 2.21875 0 L 2.21875 -16.28125 L 5.578125 -16.28125 L 5.578125 -14.421875 C 6.128906 -15.085938 6.832031 -15.609375 7.6875 -15.984375 C 8.550781 -16.359375 9.46875 -16.546875 10.4375 -16.546875 Z M 10.4375 -16.546875 "/></g></g></g><g fill="#000000" fill-opacity="1"><g transform="translate(133.22327, 31.884416)"><g><path d="M 3.578125 0.203125 C 2.960938 0.203125 2.445312 0 2.03125 -0.40625 C 1.625 -0.820312 1.421875 -1.335938 1.421875 -1.953125 C 1.421875 -2.554688 1.625 -3.066406 2.03125 -3.484375 C 2.445312 -3.898438 2.960938 -4.109375 3.578125 -4.109375 C 4.171875 -4.109375 4.671875 -3.898438 5.078125 -3.484375 C 5.492188 -3.066406 5.703125 -2.554688 5.703125 -1.953125 C 5.703125 -1.335938 5.492188 -0.820312 5.078125 -0.40625 C 4.671875 0 4.171875 0.203125 3.578125 0.203125 Z M 3.578125 0.203125 "/></g></g></g><g fill="#000000" fill-opacity="1"><g transform="translate(140.194825, 31.884416)"><g/></g></g><g fill="#000000" fill-opacity="1"><g transform="translate(147.727648, 31.884416)"><g><path d="M 16.578125 -14.421875 C 16.578125 -13.378906 16.328125 -12.394531 15.828125 -11.46875 C 15.335938 -10.539062 14.550781 -9.785156 13.46875 -9.203125 C 12.382812 -8.617188 11 -8.328125 9.3125 -8.328125 L 5.578125 -8.328125 L 5.578125 0 L 2.21875 0 L 2.21875 -20.53125 L 9.3125 -20.53125 C 10.882812 -20.53125 12.21875 -20.257812 13.3125 -19.71875 C 14.40625 -19.175781 15.222656 -18.441406 15.765625 -17.515625 C 16.304688 -16.585938 16.578125 -15.554688 16.578125 -14.421875 Z M 9.3125 -11.078125 C 10.59375 -11.078125 11.546875 -11.367188 12.171875 -11.953125 C 12.804688 -12.535156 13.125 -13.359375 13.125 -14.421875 C 13.125 -16.660156 11.851562 -17.78125 9.3125 -17.78125 L 5.578125 -17.78125 L 5.578125 -11.078125 Z M 9.3125 -11.078125 "/></g></g></g><g fill="#000000" fill-opacity="1"><g transform="translate(165.156626, 31.884416)"><g><path d="M 9.28125 0.265625 C 7.738281 0.265625 6.347656 -0.0820312 5.109375 -0.78125 C 3.867188 -1.476562 2.894531 -2.460938 2.1875 -3.734375 C 1.476562 -5.003906 1.125 -6.476562 1.125 -8.15625 C 1.125 -9.8125 1.488281 -11.28125 2.21875 -12.5625 C 2.945312 -13.84375 3.941406 -14.828125 5.203125 -15.515625 C 6.460938 -16.203125 7.867188 -16.546875 9.421875 -16.546875 C 10.984375 -16.546875 12.394531 -16.203125 13.65625 -15.515625 C 14.914062 -14.828125 15.910156 -13.84375 16.640625 -12.5625 C 17.367188 -11.28125 17.734375 -9.8125 17.734375 -8.15625 C 17.734375 -6.5 17.359375 -5.03125 16.609375 -3.75 C 15.859375 -2.46875 14.835938 -1.476562 13.546875 -0.78125 C 12.253906 -0.0820312 10.832031 0.265625 9.28125 0.265625 Z M 9.28125 -2.65625 C 10.144531 -2.65625 10.957031 -2.863281 11.71875 -3.28125 C 12.476562 -3.695312 13.09375 -4.316406 13.5625 -5.140625 C 14.03125 -5.960938 14.265625 -6.96875 14.265625 -8.15625 C 14.265625 -9.332031 14.035156 -10.328125 13.578125 -11.140625 C 13.128906 -11.960938 12.53125 -12.582031 11.78125 -13 C 11.039062 -13.414062 10.234375 -13.625 9.359375 -13.625 C 8.492188 -13.625 7.691406 -13.414062 6.953125 -13 C 6.210938 -12.582031 5.625 -11.960938 5.1875 -11.140625 C 4.757812 -10.328125 4.546875 -9.332031 4.546875 -8.15625 C 4.546875 -6.40625 4.992188 -5.050781 5.890625 -4.09375 C 6.785156 -3.132812 7.914062 -2.65625 9.28125 -2.65625 Z M 9.28125 -2.65625 "/></g></g></g><g fill="#000000" fill-opacity="1"><g transform="translate(183.855836, 31.884416)"><g><path d="M 24.078125 -16.28125 L 19.03125 0 L 15.484375 0 L 12.203125 -12.03125 L 8.921875 0 L 5.375 0 L 0.296875 -16.28125 L 3.71875 -16.28125 L 7.125 -3.1875 L 10.578125 -16.28125 L 14.09375 -16.28125 L 17.40625 -3.25 L 20.765625 -16.28125 Z M 24.078125 -16.28125 "/></g></g></g><g fill="#000000" fill-opacity="1"><g transform="translate(208.079207, 31.884416)"><g><path d="M 17.140625 -8.546875 C 17.140625 -7.929688 17.097656 -7.378906 17.015625 -6.890625 L 4.578125 -6.890625 C 4.679688 -5.585938 5.164062 -4.539062 6.03125 -3.75 C 6.894531 -2.96875 7.957031 -2.578125 9.21875 -2.578125 C 11.03125 -2.578125 12.3125 -3.332031 13.0625 -4.84375 L 16.6875 -4.84375 C 16.195312 -3.34375 15.304688 -2.113281 14.015625 -1.15625 C 12.722656 -0.207031 11.125 0.265625 9.21875 0.265625 C 7.664062 0.265625 6.269531 -0.0820312 5.03125 -0.78125 C 3.800781 -1.476562 2.835938 -2.460938 2.140625 -3.734375 C 1.441406 -5.003906 1.09375 -6.476562 1.09375 -8.15625 C 1.09375 -9.832031 1.429688 -11.304688 2.109375 -12.578125 C 2.785156 -13.847656 3.738281 -14.828125 4.96875 -15.515625 C 6.207031 -16.203125 7.625 -16.546875 9.21875 -16.546875 C 10.75 -16.546875 12.113281 -16.207031 13.3125 -15.53125 C 14.519531 -14.863281 15.457031 -13.925781 16.125 -12.71875 C 16.800781 -11.507812 17.140625 -10.117188 17.140625 -8.546875 Z M 13.625 -9.609375 C 13.601562 -10.847656 13.15625 -11.835938 12.28125 -12.578125 C 11.414062 -13.328125 10.347656 -13.703125 9.078125 -13.703125 C 7.910156 -13.703125 6.910156 -13.332031 6.078125 -12.59375 C 5.253906 -11.863281 4.765625 -10.867188 4.609375 -9.609375 Z M 13.625 -9.609375 "/></g></g></g><g fill="#000000" fill-opacity="1"><g transform="translate(226.158051, 31.884416)"><g><path d="M 5.578125 -13.921875 C 6.078125 -14.742188 6.734375 -15.382812 7.546875 -15.84375 C 8.367188 -16.3125 9.335938 -16.546875 10.453125 -16.546875 L 10.453125 -13.0625 L 9.609375 -13.0625 C 8.285156 -13.0625 7.28125 -12.722656 6.59375 -12.046875 C 5.914062 -11.378906 5.578125 -10.21875 5.578125 -8.5625 L 5.578125 0 L 2.21875 0 L 2.21875 -16.28125 L 5.578125 -16.28125 Z M 5.578125 -13.921875 "/></g></g></g><g fill="#000000" fill-opacity="1"><g transform="translate(237.353927, 31.884416)"><g><path d="M 3.578125 0.203125 C 2.960938 0.203125 2.445312 0 2.03125 -0.40625 C 1.625 -0.820312 1.421875 -1.335938 1.421875 -1.953125 C 1.421875 -2.554688 1.625 -3.066406 2.03125 -3.484375 C 2.445312 -3.898438 2.960938 -4.109375 3.578125 -4.109375 C 4.171875 -4.109375 4.671875 -3.898438 5.078125 -3.484375 C 5.492188 -3.066406 5.703125 -2.554688 5.703125 -1.953125 C 5.703125 -1.335938 5.492188 -0.820312 5.078125 -0.40625 C 4.671875 0 4.171875 0.203125 3.578125 0.203125 Z M 3.578125 0.203125 "/></g></g></g><g fill="#000000" fill-opacity="1"><g transform="translate(0.290522, 66.750755)"><g><path d="M 16.578125 -14.421875 C 16.578125 -13.378906 16.328125 -12.394531 15.828125 -11.46875 C 15.335938 -10.539062 14.550781 -9.785156 13.46875 -9.203125 C 12.382812 -8.617188 11 -8.328125 9.3125 -8.328125 L 5.578125 -8.328125 L 5.578125 0 L 2.21875 0 L 2.21875 -20.53125 L 9.3125 -20.53125 C 10.882812 -20.53125 12.21875 -20.257812 13.3125 -19.71875 C 14.40625 -19.175781 15.222656 -18.441406 15.765625 -17.515625 C 16.304688 -16.585938 16.578125 -15.554688 16.578125 -14.421875 Z M 9.3125 -11.078125 C 10.59375 -11.078125 11.546875 -11.367188 12.171875 -11.953125 C 12.804688 -12.535156 13.125 -13.359375 13.125 -14.421875 C 13.125 -16.660156 11.851562 -17.78125 9.3125 -17.78125 L 5.578125 -17.78125 L 5.578125 -11.078125 Z M 9.3125 -11.078125 "/></g></g></g><g fill="#000000" fill-opacity="1"><g transform="translate(17.719501, 66.750755)"><g><path d="M 1.09375 -8.21875 C 1.09375 -9.851562 1.429688 -11.300781 2.109375 -12.5625 C 2.785156 -13.820312 3.707031 -14.800781 4.875 -15.5 C 6.050781 -16.195312 7.351562 -16.546875 8.78125 -16.546875 C 10.0625 -16.546875 11.175781 -16.296875 12.125 -15.796875 C 13.082031 -15.296875 13.847656 -14.671875 14.421875 -13.921875 L 14.421875 -16.28125 L 17.8125 -16.28125 L 17.8125 0 L 14.421875 0 L 14.421875 -2.421875 C 13.847656 -1.648438 13.066406 -1.007812 12.078125 -0.5 C 11.097656 0.0078125 9.976562 0.265625 8.71875 0.265625 C 7.320312 0.265625 6.039062 -0.09375 4.875 -0.8125 C 3.707031 -1.53125 2.785156 -2.535156 2.109375 -3.828125 C 1.429688 -5.117188 1.09375 -6.582031 1.09375 -8.21875 Z M 14.421875 -8.15625 C 14.421875 -9.28125 14.1875 -10.253906 13.71875 -11.078125 C 13.257812 -11.910156 12.65625 -12.539062 11.90625 -12.96875 C 11.15625 -13.40625 10.347656 -13.625 9.484375 -13.625 C 8.617188 -13.625 7.8125 -13.410156 7.0625 -12.984375 C 6.3125 -12.554688 5.703125 -11.929688 5.234375 -11.109375 C 4.773438 -10.296875 4.546875 -9.332031 4.546875 -8.21875 C 4.546875 -7.09375 4.773438 -6.101562 5.234375 -5.25 C 5.703125 -4.40625 6.316406 -3.757812 7.078125 -3.3125 C 7.835938 -2.875 8.640625 -2.65625 9.484375 -2.65625 C 10.347656 -2.65625 11.15625 -2.867188 11.90625 -3.296875 C 12.65625 -3.734375 13.257812 -4.367188 13.71875 -5.203125 C 14.1875 -6.046875 14.421875 -7.03125 14.421875 -8.15625 Z M 14.421875 -8.15625 "/></g></g></g><g fill="#000000" fill-opacity="1"><g transform="translate(37.600355, 66.750755)"><g><path d="M 5.578125 -13.921875 C 6.078125 -14.742188 6.734375 -15.382812 7.546875 -15.84375 C 8.367188 -16.3125 9.335938 -16.546875 10.453125 -16.546875 L 10.453125 -13.0625 L 9.609375 -13.0625 C 8.285156 -13.0625 7.28125 -12.722656 6.59375 -12.046875 C 5.914062 -11.378906 5.578125 -10.21875 5.578125 -8.5625 L 5.578125 0 L 2.21875 0 L 2.21875 -16.28125 L 5.578125 -16.28125 Z M 5.578125 -13.921875 "/></g></g></g><g fill="#000000" fill-opacity="1"><g transform="translate(48.796231, 66.750755)"><g><path d="M 6.140625 -13.53125 L 6.140625 -4.515625 C 6.140625 -3.910156 6.28125 -3.472656 6.5625 -3.203125 C 6.851562 -2.941406 7.34375 -2.8125 8.03125 -2.8125 L 10.109375 -2.8125 L 10.109375 0 L 7.453125 0 C 5.929688 0 4.765625 -0.351562 3.953125 -1.0625 C 3.148438 -1.769531 2.75 -2.921875 2.75 -4.515625 L 2.75 -13.53125 L 0.828125 -13.53125 L 0.828125 -16.28125 L 2.75 -16.28125 L 2.75 -20.328125 L 6.140625 -20.328125 L 6.140625 -16.28125 L 10.109375 -16.28125 L 10.109375 -13.53125 Z M 6.140625 -13.53125 "/></g></g></g><g fill="#000000" fill-opacity="1"><g transform="translate(59.637621, 66.750755)"><g><path d="M 10.4375 -16.546875 C 11.707031 -16.546875 12.847656 -16.28125 13.859375 -15.75 C 14.878906 -15.21875 15.675781 -14.425781 16.25 -13.375 C 16.820312 -12.332031 17.109375 -11.078125 17.109375 -9.609375 L 17.109375 0 L 13.765625 0 L 13.765625 -9.09375 C 13.765625 -10.550781 13.398438 -11.671875 12.671875 -12.453125 C 11.941406 -13.234375 10.945312 -13.625 9.6875 -13.625 C 8.425781 -13.625 7.425781 -13.234375 6.6875 -12.453125 C 5.945312 -11.671875 5.578125 -10.550781 5.578125 -9.09375 L 5.578125 0 L 2.21875 0 L 2.21875 -16.28125 L 5.578125 -16.28125 L 5.578125 -14.421875 C 6.128906 -15.085938 6.832031 -15.609375 7.6875 -15.984375 C 8.550781 -16.359375 9.46875 -16.546875 10.4375 -16.546875 Z M 10.4375 -16.546875 "/></g></g></g><g fill="#000000" fill-opacity="1"><g transform="translate(78.661796, 66.750755)"><g><path d="M 17.140625 -8.546875 C 17.140625 -7.929688 17.097656 -7.378906 17.015625 -6.890625 L 4.578125 -6.890625 C 4.679688 -5.585938 5.164062 -4.539062 6.03125 -3.75 C 6.894531 -2.96875 7.957031 -2.578125 9.21875 -2.578125 C 11.03125 -2.578125 12.3125 -3.332031 13.0625 -4.84375 L 16.6875 -4.84375 C 16.195312 -3.34375 15.304688 -2.113281 14.015625 -1.15625 C 12.722656 -0.207031 11.125 0.265625 9.21875 0.265625 C 7.664062 0.265625 6.269531 -0.0820312 5.03125 -0.78125 C 3.800781 -1.476562 2.835938 -2.460938 2.140625 -3.734375 C 1.441406 -5.003906 1.09375 -6.476562 1.09375 -8.15625 C 1.09375 -9.832031 1.429688 -11.304688 2.109375 -12.578125 C 2.785156 -13.847656 3.738281 -14.828125 4.96875 -15.515625 C 6.207031 -16.203125 7.625 -16.546875 9.21875 -16.546875 C 10.75 -16.546875 12.113281 -16.207031 13.3125 -15.53125 C 14.519531 -14.863281 15.457031 -13.925781 16.125 -12.71875 C 16.800781 -11.507812 17.140625 -10.117188 17.140625 -8.546875 Z M 13.625 -9.609375 C 13.601562 -10.847656 13.15625 -11.835938 12.28125 -12.578125 C 11.414062 -13.328125 10.347656 -13.703125 9.078125 -13.703125 C 7.910156 -13.703125 6.910156 -13.332031 6.078125 -12.59375 C 5.253906 -11.863281 4.765625 -10.867188 4.609375 -9.609375 Z M 13.625 -9.609375 "/></g></g></g><g fill="#000000" fill-opacity="1"><g transform="translate(96.740661, 66.750755)"><g><path d="M 5.578125 -13.921875 C 6.078125 -14.742188 6.734375 -15.382812 7.546875 -15.84375 C 8.367188 -16.3125 9.335938 -16.546875 10.453125 -16.546875 L 10.453125 -13.0625 L 9.609375 -13.0625 C 8.285156 -13.0625 7.28125 -12.722656 6.59375 -12.046875 C 5.914062 -11.378906 5.578125 -10.21875 5.578125 -8.5625 L 5.578125 0 L 2.21875 0 L 2.21875 -16.28125 L 5.578125 -16.28125 Z M 5.578125 -13.921875 "/></g></g></g><g fill="#000000" fill-opacity="1"><g transform="translate(107.936537, 66.750755)"><g><path d="M 8.125 0.265625 C 6.84375 0.265625 5.691406 0.0351562 4.671875 -0.421875 C 3.660156 -0.890625 2.859375 -1.519531 2.265625 -2.3125 C 1.679688 -3.113281 1.367188 -4.007812 1.328125 -5 L 4.8125 -5 C 4.875 -4.300781 5.203125 -3.722656 5.796875 -3.265625 C 6.398438 -2.804688 7.15625 -2.578125 8.0625 -2.578125 C 9.007812 -2.578125 9.742188 -2.753906 10.265625 -3.109375 C 10.785156 -3.472656 11.046875 -3.941406 11.046875 -4.515625 C 11.046875 -5.128906 10.753906 -5.582031 10.171875 -5.875 C 9.597656 -6.175781 8.679688 -6.503906 7.421875 -6.859375 C 6.191406 -7.191406 5.191406 -7.515625 4.421875 -7.828125 C 3.660156 -8.140625 3 -8.617188 2.4375 -9.265625 C 1.875 -9.921875 1.59375 -10.78125 1.59375 -11.84375 C 1.59375 -12.707031 1.847656 -13.5 2.359375 -14.21875 C 2.867188 -14.945312 3.601562 -15.515625 4.5625 -15.921875 C 5.519531 -16.335938 6.617188 -16.546875 7.859375 -16.546875 C 9.710938 -16.546875 11.203125 -16.078125 12.328125 -15.140625 C 13.460938 -14.203125 14.070312 -12.925781 14.15625 -11.3125 L 10.78125 -11.3125 C 10.726562 -12.039062 10.429688 -12.617188 9.890625 -13.046875 C 9.359375 -13.484375 8.640625 -13.703125 7.734375 -13.703125 C 6.847656 -13.703125 6.171875 -13.535156 5.703125 -13.203125 C 5.234375 -12.867188 5 -12.425781 5 -11.875 C 5 -11.445312 5.15625 -11.082031 5.46875 -10.78125 C 5.78125 -10.488281 6.160156 -10.257812 6.609375 -10.09375 C 7.066406 -9.925781 7.738281 -9.710938 8.625 -9.453125 C 9.8125 -9.140625 10.78125 -8.816406 11.53125 -8.484375 C 12.289062 -8.160156 12.945312 -7.679688 13.5 -7.046875 C 14.050781 -6.421875 14.335938 -5.585938 14.359375 -4.546875 C 14.359375 -3.617188 14.101562 -2.789062 13.59375 -2.0625 C 13.082031 -1.332031 12.359375 -0.757812 11.421875 -0.34375 C 10.484375 0.0625 9.382812 0.265625 8.125 0.265625 Z M 8.125 0.265625 "/></g></g></g><g fill="#000000" fill-opacity="1"><g transform="translate(123.563527, 66.750755)"><g><path d="M 10.640625 -16.546875 C 11.878906 -16.546875 12.984375 -16.28125 13.953125 -15.75 C 14.929688 -15.21875 15.703125 -14.425781 16.265625 -13.375 C 16.828125 -12.332031 17.109375 -11.078125 17.109375 -9.609375 L 17.109375 0 L 13.765625 0 L 13.765625 -9.09375 C 13.765625 -10.550781 13.398438 -11.671875 12.671875 -12.453125 C 11.941406 -13.234375 10.945312 -13.625 9.6875 -13.625 C 8.425781 -13.625 7.425781 -13.234375 6.6875 -12.453125 C 5.945312 -11.671875 5.578125 -10.550781 5.578125 -9.09375 L 5.578125 0 L 2.21875 0 L 2.21875 -21.859375 L 5.578125 -21.859375 L 5.578125 -14.390625 C 6.148438 -15.078125 6.875 -15.609375 7.75 -15.984375 C 8.632812 -16.359375 9.597656 -16.546875 10.640625 -16.546875 Z M 10.640625 -16.546875 "/></g></g></g><g fill="#000000" fill-opacity="1"><g transform="translate(142.587702, 66.750755)"><g><path d="M 3.9375 -18.4375 C 3.320312 -18.4375 2.804688 -18.640625 2.390625 -19.046875 C 1.972656 -19.460938 1.765625 -19.976562 1.765625 -20.59375 C 1.765625 -21.207031 1.972656 -21.71875 2.390625 -22.125 C 2.804688 -22.539062 3.320312 -22.75 3.9375 -22.75 C 4.519531 -22.75 5.019531 -22.539062 5.4375 -22.125 C 5.851562 -21.71875 6.0625 -21.207031 6.0625 -20.59375 C 6.0625 -19.976562 5.851562 -19.460938 5.4375 -19.046875 C 5.019531 -18.640625 4.519531 -18.4375 3.9375 -18.4375 Z M 5.578125 -16.28125 L 5.578125 0 L 2.21875 0 L 2.21875 -16.28125 Z M 5.578125 -16.28125 "/></g></g></g><g fill="#000000" fill-opacity="1"><g transform="translate(150.238687, 66.750755)"><g><path d="M 5.578125 -13.890625 C 6.148438 -14.640625 6.925781 -15.269531 7.90625 -15.78125 C 8.894531 -16.289062 10.007812 -16.546875 11.25 -16.546875 C 12.675781 -16.546875 13.972656 -16.195312 15.140625 -15.5 C 16.316406 -14.800781 17.238281 -13.820312 17.90625 -12.5625 C 18.570312 -11.300781 18.90625 -9.851562 18.90625 -8.21875 C 18.90625 -6.582031 18.570312 -5.117188 17.90625 -3.828125 C 17.238281 -2.535156 16.316406 -1.53125 15.140625 -0.8125 C 13.972656 -0.09375 12.675781 0.265625 11.25 0.265625 C 10.007812 0.265625 8.90625 0.015625 7.9375 -0.484375 C 6.976562 -0.984375 6.191406 -1.609375 5.578125 -2.359375 L 5.578125 7.734375 L 2.21875 7.734375 L 2.21875 -16.28125 L 5.578125 -16.28125 Z M 15.484375 -8.21875 C 15.484375 -9.332031 15.25 -10.296875 14.78125 -11.109375 C 14.320312 -11.929688 13.710938 -12.554688 12.953125 -12.984375 C 12.191406 -13.410156 11.378906 -13.625 10.515625 -13.625 C 9.671875 -13.625 8.867188 -13.40625 8.109375 -12.96875 C 7.347656 -12.539062 6.734375 -11.910156 6.265625 -11.078125 C 5.804688 -10.253906 5.578125 -9.28125 5.578125 -8.15625 C 5.578125 -7.03125 5.804688 -6.046875 6.265625 -5.203125 C 6.734375 -4.367188 7.347656 -3.734375 8.109375 -3.296875 C 8.867188 -2.867188 9.671875 -2.65625 10.515625 -2.65625 C 11.378906 -2.65625 12.191406 -2.875 12.953125 -3.3125 C 13.710938 -3.757812 14.320312 -4.40625 14.78125 -5.25 C 15.25 -6.101562 15.484375 -7.09375 15.484375 -8.21875 Z M 15.484375 -8.21875 "/></g></g></g></g></g></svg>