<svg xmlns="http://www.w3.org/2000/svg" xmlns:xlink="http://www.w3.org/1999/xlink" width="800" zoomAndPan="magnify" viewBox="0 0 600 599.999999" height="800" preserveAspectRatio="xMidYMid meet" version="1.0"><defs><clipPath id="5f1fa1eb82"><path d="M 226.074219 161.53125 L 373 161.53125 L 373 295 L 226.074219 295 Z M 226.074219 161.53125 " clip-rule="nonzero"/></clipPath><clipPath id="460b5fac5d"><path d="M 287 318.5625 L 334 318.5625 L 334 417 L 287 417 Z M 287 318.5625 " clip-rule="nonzero"/></clipPath><clipPath id="837cf53e7a"><path d="M 383 347 L 457 347 L 457 438.5625 L 383 438.5625 Z M 383 347 " clip-rule="nonzero"/></clipPath><clipPath id="e68348dec6"><path d="M 462 347 L 524.808594 347 L 524.808594 417 L 462 417 Z M 462 347 " clip-rule="nonzero"/></clipPath><clipPath id="ac6021c5fd"><path d="M 75.558594 347 L 151 347 L 151 417 L 75.558594 417 Z M 75.558594 347 " clip-rule="nonzero"/></clipPath></defs><g clip-path="url(#5f1fa1eb82)"><path fill="#cbe800" d="M 300.367188 161.738281 C 322.609375 161.175781 345.582031 161.945312 372.621094 161.945312 C 368.035156 175.929688 364.207031 182.894531 359.890625 196.910156 L 359.949219 197.21875 C 362.8125 211.578125 366.433594 229.746094 362.324219 247.007812 C 354.085938 281.636719 320.417969 299.742188 280.382812 293.679688 C 248.453125 288.839844 225.355469 260.371094 226.191406 226.867188 C 226.976562 195.289062 247.042969 170.109375 276.542969 163.699219 C 282.390625 162.296875 288.648438 161.597656 295.320312 161.597656 C 297.027344 161.597656 298.710938 161.644531 300.367188 161.738281 Z M 295.128906 190.234375 C 285.996094 190.234375 279.308594 193.347656 275.078125 199.578125 C 270.84375 205.804688 268.722656 215.3125 268.722656 228.101562 C 268.722656 240.933594 270.84375 250.476562 275.078125 256.753906 C 279.308594 263.019531 285.992188 266.140625 295.128906 266.140625 C 304.015625 266.140625 310.578125 263.019531 314.769531 256.753906 C 318.960938 250.476562 321.039062 240.933594 321.039062 228.101562 C 321.039062 215.3125 318.960938 205.804688 314.769531 199.578125 C 310.578125 193.347656 304.011719 190.234375 295.128906 190.234375 Z M 295.128906 190.234375 " fill-opacity="1" fill-rule="nonzero"/></g><path fill="#ffffff" d="M 336.636719 379.675781 L 336.636719 416.75 L 355.695312 416.746094 L 355.695312 379.691406 C 355.941406 377.570312 357.800781 368.328125 367.675781 368.074219 C 377.550781 367.820312 377.984375 363.105469 378.5 358.59375 L 379.621094 348.839844 C 336.683594 344.257812 336.679688 379.113281 336.671875 379.214844 Z M 336.636719 379.675781 " fill-opacity="1" fill-rule="nonzero"/><path fill="#ffffff" d="M 208.132812 356.195312 C 208.132812 357.609375 207.890625 358.980469 207.40625 360.308594 C 206.921875 361.632812 206.285156 362.71875 205.492188 363.558594 L 176.933594 401.496094 L 207.472656 401.496094 L 207.472656 416.746094 L 153.382812 416.746094 L 153.382812 408.390625 C 153.382812 407.550781 153.605469 406.492188 154.042969 405.207031 C 154.480469 403.925781 155.144531 402.730469 156.023438 401.625 L 184.847656 363.226562 L 155.230469 363.226562 L 155.230469 347.972656 L 208.132812 347.972656 Z M 208.132812 356.195312 " fill-opacity="1" fill-rule="nonzero"/><g clip-path="url(#460b5fac5d)"><path fill="#ffffff" d="M 297.40625 416.746094 L 297.40625 362.265625 L 292.917969 361.339844 C 291.378906 360.988281 290.121094 360.4375 289.15625 359.683594 C 288.230469 358.9375 287.765625 357.835938 287.765625 356.382812 L 287.765625 348.316406 L 297.40625 348.316406 L 297.40625 344.414062 C 297.40625 340.488281 298.023438 336.945312 299.253906 333.769531 C 300.53125 330.59375 302.335938 327.882812 304.671875 325.636719 C 307.046875 323.386719 309.929688 321.648438 313.320312 320.414062 C 316.707031 319.179688 320.5625 318.5625 324.875 318.5625 C 326.546875 318.5625 328.085938 318.671875 329.496094 318.890625 C 330.902344 319.066406 332.378906 319.378906 333.921875 319.816406 L 333.523438 329.800781 C 333.476562 330.507812 333.304688 331.101562 332.996094 331.585938 C 332.6875 332.027344 332.269531 332.402344 331.742188 332.710938 C 331.253906 332.976562 330.726562 333.171875 330.15625 333.304688 C 329.582031 333.4375 329.011719 333.503906 328.441406 333.503906 C 326.632812 333.503906 325.027344 333.679688 323.621094 334.03125 C 322.210938 334.386719 321.023438 335.023438 320.054688 335.953125 C 319.128906 336.832031 318.425781 338.023438 317.941406 339.523438 C 317.457031 340.976562 317.214844 342.828125 317.214844 345.074219 L 317.214844 348.316406 L 333.257812 348.316406 L 333.257812 362.332031 L 317.875 362.332031 L 317.875 416.746094 Z M 297.40625 416.746094 " fill-opacity="1" fill-rule="nonzero"/></g><g clip-path="url(#837cf53e7a)"><path fill="#ffffff" d="M 456.539062 347.972656 L 419.78125 434.492188 C 419.164062 435.859375 418.414062 436.855469 417.527344 437.472656 C 416.644531 438.136719 415.226562 438.464844 413.28125 438.464844 L 397.890625 438.464844 L 411.15625 410.644531 L 383.691406 347.972656 L 401.871094 347.972656 C 403.460938 347.972656 404.679688 348.328125 405.519531 349.03125 C 406.402344 349.738281 407.046875 350.578125 407.445312 351.550781 L 418.722656 381.164062 C 419.78125 383.855469 420.648438 386.617188 421.308594 389.445312 C 421.796875 388.03125 422.28125 386.617188 422.769531 385.203125 C 423.253906 383.792969 423.765625 382.398438 424.296875 381.03125 L 434.511719 351.550781 C 434.914062 350.535156 435.617188 349.695312 436.636719 349.03125 C 437.65625 348.328125 438.757812 347.972656 439.953125 347.972656 Z M 456.539062 347.972656 " fill-opacity="1" fill-rule="nonzero"/></g><g clip-path="url(#e68348dec6)"><path fill="#ffffff" d="M 481.28125 355.539062 C 482.601562 354.300781 483.964844 353.15625 485.371094 352.09375 C 486.777344 351.039062 488.273438 350.15625 489.855469 349.449219 C 491.484375 348.699219 493.21875 348.125 495.0625 347.730469 C 496.953125 347.285156 499 347.066406 501.195312 347.066406 C 504.933594 347.066406 508.230469 347.730469 511.089844 349.050781 C 513.992188 350.332031 516.433594 352.140625 518.40625 354.476562 C 520.386719 356.773438 521.882812 359.53125 522.894531 362.75 C 523.90625 365.925781 524.410156 369.390625 524.410156 373.140625 L 524.410156 416.746094 L 503.96875 416.746094 L 503.96875 373.140625 C 503.96875 369.785156 503.195312 367.183594 501.660156 365.332031 C 500.121094 363.433594 497.855469 362.484375 494.863281 362.484375 C 492.625 362.484375 490.511719 362.972656 488.539062 363.941406 C 486.601562 364.867188 484.710938 366.148438 482.867188 367.777344 L 482.867188 416.746094 L 462.421875 416.746094 L 462.421875 348.125 L 475.082031 348.125 C 477.632812 348.125 479.300781 349.273438 480.09375 351.566406 Z M 481.28125 355.539062 " fill-opacity="1" fill-rule="nonzero"/></g><path fill="#ffffff" d="M 250.792969 347.972656 C 255.832031 347.972656 260.417969 348.765625 264.5625 350.347656 C 268.699219 351.933594 272.265625 354.207031 275.230469 357.164062 C 278.195312 360.121094 280.503906 363.71875 282.148438 367.9375 C 283.789062 372.179688 284.601562 376.917969 284.601562 382.1875 C 284.601562 387.519531 283.789062 392.300781 282.148438 396.585938 C 280.503906 400.847656 278.195312 404.46875 275.230469 407.449219 C 272.265625 410.425781 268.699219 412.722656 264.5625 414.328125 C 260.417969 415.929688 255.832031 416.746094 250.792969 416.746094 C 245.714844 416.746094 241.105469 415.929688 236.9375 414.328125 C 232.78125 412.722656 229.195312 410.425781 226.1875 407.449219 C 223.175781 404.46875 220.847656 400.847656 219.207031 396.585938 C 217.5625 392.300781 216.730469 387.519531 216.730469 382.1875 C 216.730469 376.917969 217.5625 372.179688 219.207031 367.9375 C 220.847656 363.714844 223.175781 360.121094 226.1875 357.164062 C 229.195312 354.207031 232.78125 351.933594 236.9375 350.347656 C 241.105469 348.765625 245.714844 347.972656 250.792969 347.972656 Z M 250.792969 362.777344 C 246.097656 362.777344 242.664062 364.382812 240.488281 367.597656 C 238.3125 370.808594 237.21875 375.71875 237.21875 382.316406 C 237.21875 388.9375 238.3125 393.863281 240.488281 397.097656 C 242.664062 400.332031 246.097656 401.941406 250.792969 401.941406 C 255.359375 401.941406 258.738281 400.332031 260.886719 397.097656 C 263.042969 393.863281 264.109375 388.9375 264.109375 382.316406 C 264.109375 375.71875 263.046875 370.808594 260.886719 367.597656 C 258.734375 364.382812 255.359375 362.777344 250.792969 362.777344 Z M 250.792969 362.777344 " fill-opacity="1" fill-rule="nonzero"/><g clip-path="url(#ac6021c5fd)"><path fill="#ffffff" d="M 113.613281 348.078125 C 125.019531 347.789062 136.800781 348.183594 150.667969 348.183594 C 148.316406 355.402344 146.351562 358.992188 144.136719 366.222656 L 144.167969 366.382812 C 145.636719 373.792969 147.496094 383.164062 145.386719 392.070312 C 141.160156 409.9375 123.894531 419.277344 103.359375 416.152344 C 86.984375 413.652344 75.140625 398.964844 75.570312 381.679688 C 75.972656 365.386719 86.265625 352.398438 101.390625 349.089844 C 104.390625 348.367188 107.601562 348.007812 111.019531 348.007812 C 111.898438 348.007812 112.761719 348.03125 113.613281 348.078125 Z M 110.925781 362.78125 C 106.242188 362.78125 102.8125 364.386719 100.640625 367.601562 C 98.46875 370.8125 97.382812 375.71875 97.382812 382.316406 C 97.382812 388.9375 98.46875 393.863281 100.640625 397.097656 C 102.8125 400.332031 106.238281 401.941406 110.925781 401.941406 C 115.480469 401.941406 118.847656 400.332031 120.996094 397.097656 C 123.148438 393.863281 124.210938 388.9375 124.210938 382.316406 C 124.210938 375.71875 123.148438 370.8125 120.996094 367.601562 C 118.847656 364.386719 115.480469 362.78125 110.925781 362.78125 Z M 110.925781 362.78125 " fill-opacity="1" fill-rule="nonzero"/></g><path fill="#ffffff" d="M 250.96875 347.972656 C 254.207031 347.972656 257.261719 348.300781 260.132812 348.957031 C 268.609375 350.214844 275.726562 355.511719 281.070312 362.246094 C 283.128906 364.847656 284.574219 367.894531 285.15625 371.160156 C 286.308594 377.609375 287.136719 384.980469 285.457031 392.058594 C 281.214844 409.933594 263.886719 419.28125 243.277344 416.152344 C 226.839844 413.652344 214.953125 398.957031 215.382812 381.664062 C 215.785156 365.339844 226.152344 352.320312 241.378906 349.039062 C 244.371094 348.328125 247.5625 347.972656 250.96875 347.972656 Z M 250.871094 362.753906 C 246.167969 362.753906 242.726562 364.363281 240.546875 367.578125 C 238.367188 370.792969 237.273438 375.699219 237.273438 382.296875 C 237.273438 388.921875 238.367188 393.847656 240.546875 397.089844 C 242.726562 400.324219 246.167969 401.933594 250.871094 401.933594 C 255.441406 401.933594 258.824219 400.324219 260.976562 397.089844 C 263.136719 393.847656 264.207031 388.921875 264.207031 382.296875 C 264.207031 375.699219 263.136719 370.792969 260.976562 367.578125 C 258.820312 364.363281 255.441406 362.753906 250.871094 362.753906 Z M 250.871094 362.753906 " fill-opacity="1" fill-rule="nonzero"/></svg>