<svg xmlns="http://www.w3.org/2000/svg" xmlns:xlink="http://www.w3.org/1999/xlink" width="800" zoomAndPan="magnify" viewBox="0 0 600 149.999998" height="200" preserveAspectRatio="xMidYMid meet" version="1.0"><defs><g/><clipPath id="1536c2c44a"><path d="M 124 4.132812 L 152 4.132812 L 152 62 L 124 62 Z M 124 4.132812 " clip-rule="nonzero"/></clipPath><clipPath id="6a70025fcc"><path d="M 180 21 L 223 21 L 223 73.867188 L 180 73.867188 Z M 180 21 " clip-rule="nonzero"/></clipPath><clipPath id="cfeb6d8875"><path d="M 225 20 L 262.140625 20 L 262.140625 62 L 225 62 Z M 225 20 " clip-rule="nonzero"/></clipPath><clipPath id="f1708bc20c"><rect x="0" width="567" y="0" height="78"/></clipPath></defs><g transform="matrix(1, 0, 0, 1, 14, 36)"><g clip-path="url(#f1708bc20c)"><path fill="#ffffff" d="M 152.828125 39.675781 L 152.828125 61.234375 L 163.910156 61.234375 L 163.910156 39.683594 C 164.054688 38.453125 165.136719 33.074219 170.878906 32.929688 C 176.625 32.78125 176.875 30.039062 177.175781 27.414062 L 177.824219 21.742188 C 152.855469 19.078125 152.851562 39.347656 152.851562 39.40625 Z M 152.828125 39.675781 " fill-opacity="1" fill-rule="nonzero"/><path fill="#ffffff" d="M 78.097656 26.019531 C 78.097656 26.84375 77.957031 27.640625 77.675781 28.410156 C 77.394531 29.183594 77.023438 29.8125 76.5625 30.304688 L 59.953125 52.363281 L 77.714844 52.363281 L 77.714844 61.234375 L 46.257812 61.234375 L 46.257812 56.375 C 46.257812 55.886719 46.386719 55.269531 46.640625 54.523438 C 46.898438 53.777344 47.28125 53.082031 47.792969 52.441406 L 64.558594 30.109375 L 47.332031 30.109375 L 47.332031 21.238281 L 78.097656 21.238281 Z M 78.097656 26.019531 " fill-opacity="1" fill-rule="nonzero"/><g clip-path="url(#1536c2c44a)"><path fill="#ffffff" d="M 130.015625 61.234375 L 130.015625 29.550781 L 127.40625 29.011719 C 126.507812 28.808594 125.777344 28.488281 125.214844 28.050781 C 124.675781 27.617188 124.410156 26.976562 124.410156 26.128906 L 124.410156 21.4375 L 130.015625 21.4375 L 130.015625 19.167969 C 130.015625 16.886719 130.375 14.824219 131.089844 12.976562 C 131.832031 11.132812 132.882812 9.554688 134.238281 8.25 C 135.621094 6.941406 137.296875 5.929688 139.269531 5.210938 C 141.238281 4.492188 143.480469 4.136719 145.988281 4.136719 C 146.960938 4.136719 147.859375 4.199219 148.675781 4.328125 C 149.496094 4.429688 150.351562 4.609375 151.25 4.863281 L 151.019531 10.671875 C 150.992188 11.082031 150.890625 11.425781 150.710938 11.710938 C 150.53125 11.964844 150.289062 12.183594 149.980469 12.363281 C 149.699219 12.515625 149.394531 12.632812 149.0625 12.710938 C 148.726562 12.785156 148.394531 12.824219 148.0625 12.824219 C 147.011719 12.824219 146.078125 12.925781 145.257812 13.132812 C 144.441406 13.335938 143.75 13.707031 143.183594 14.246094 C 142.648438 14.757812 142.238281 15.453125 141.957031 16.324219 C 141.675781 17.167969 141.535156 18.246094 141.535156 19.554688 L 141.535156 21.4375 L 150.863281 21.4375 L 150.863281 29.589844 L 141.917969 29.589844 L 141.917969 61.234375 Z M 130.015625 61.234375 " fill-opacity="1" fill-rule="nonzero"/></g><g clip-path="url(#6a70025fcc)"><path fill="#ffffff" d="M 222.558594 21.238281 L 201.183594 71.554688 C 200.824219 72.347656 200.386719 72.929688 199.871094 73.285156 C 199.359375 73.671875 198.535156 73.863281 197.402344 73.863281 L 188.449219 73.863281 L 196.167969 57.683594 L 180.195312 21.238281 L 190.765625 21.238281 C 191.691406 21.238281 192.398438 21.445312 192.886719 21.855469 C 193.402344 22.265625 193.777344 22.753906 194.007812 23.320312 L 200.566406 40.539062 C 201.183594 42.105469 201.683594 43.710938 202.070312 45.355469 C 202.355469 44.535156 202.636719 43.710938 202.917969 42.890625 C 203.203125 42.070312 203.496094 41.257812 203.804688 40.464844 L 209.746094 23.320312 C 209.980469 22.726562 210.390625 22.242188 210.984375 21.855469 C 211.574219 21.445312 212.21875 21.238281 212.910156 21.238281 Z M 222.558594 21.238281 " fill-opacity="1" fill-rule="nonzero"/></g><g clip-path="url(#cfeb6d8875)"><path fill="#ffffff" d="M 236.949219 25.636719 C 237.714844 24.917969 238.507812 24.253906 239.324219 23.636719 C 240.144531 23.019531 241.011719 22.507812 241.933594 22.097656 C 242.878906 21.660156 243.886719 21.328125 244.960938 21.097656 C 246.0625 20.839844 247.25 20.710938 248.527344 20.710938 C 250.703125 20.710938 252.621094 21.097656 254.28125 21.867188 C 255.96875 22.609375 257.386719 23.664062 258.539062 25.023438 C 259.6875 26.355469 260.558594 27.960938 261.144531 29.832031 C 261.734375 31.679688 262.027344 33.695312 262.027344 35.875 L 262.027344 61.234375 L 250.140625 61.234375 L 250.140625 35.875 C 250.140625 33.921875 249.691406 32.410156 248.796875 31.332031 C 247.902344 30.230469 246.585938 29.679688 244.847656 29.679688 C 243.542969 29.679688 242.316406 29.960938 241.167969 30.523438 C 240.039062 31.066406 238.941406 31.808594 237.867188 32.757812 L 237.867188 61.234375 L 225.980469 61.234375 L 225.980469 21.328125 L 233.34375 21.328125 C 234.824219 21.328125 235.796875 21.996094 236.257812 23.328125 Z M 236.949219 25.636719 " fill-opacity="1" fill-rule="nonzero"/></g><path fill="#ffffff" d="M 102.90625 21.238281 C 105.835938 21.238281 108.503906 21.699219 110.914062 22.621094 C 113.320312 23.542969 115.394531 24.863281 117.117188 26.582031 C 118.84375 28.304688 120.183594 30.394531 121.140625 32.851562 C 122.097656 35.316406 122.566406 38.070312 122.566406 41.136719 C 122.566406 44.238281 122.097656 47.019531 121.140625 49.511719 C 120.183594 51.988281 118.84375 54.09375 117.117188 55.828125 C 115.394531 57.558594 113.320312 58.894531 110.914062 59.828125 C 108.503906 60.761719 105.835938 61.234375 102.90625 61.234375 C 99.953125 61.234375 97.273438 60.761719 94.851562 59.828125 C 92.429688 58.894531 90.347656 57.558594 88.597656 55.828125 C 86.847656 54.09375 85.492188 51.988281 84.539062 49.511719 C 83.582031 47.019531 83.097656 44.238281 83.097656 41.136719 C 83.097656 38.070312 83.582031 35.316406 84.539062 32.851562 C 85.492188 30.394531 86.847656 28.304688 88.597656 26.582031 C 90.347656 24.863281 92.429688 23.542969 94.851562 22.621094 C 97.273438 21.699219 99.953125 21.238281 102.90625 21.238281 Z M 102.90625 29.847656 C 100.175781 29.847656 98.179688 30.78125 96.914062 32.652344 C 95.648438 34.519531 95.015625 37.375 95.015625 41.210938 C 95.015625 45.0625 95.648438 47.925781 96.914062 49.808594 C 98.179688 51.6875 100.175781 52.625 102.90625 52.625 C 105.5625 52.625 107.527344 51.6875 108.777344 49.808594 C 110.03125 47.925781 110.652344 45.0625 110.652344 41.210938 C 110.652344 37.375 110.03125 34.519531 108.777344 32.652344 C 107.527344 30.78125 105.5625 29.847656 102.90625 29.847656 Z M 102.90625 29.847656 " fill-opacity="1" fill-rule="nonzero"/><path fill="#d9f323" d="M 23.128906 21.300781 C 29.765625 21.132812 36.613281 21.363281 44.679688 21.363281 C 43.3125 25.558594 42.167969 27.648438 40.882812 31.851562 L 40.898438 31.945312 C 41.753906 36.253906 42.835938 41.703125 41.609375 46.882812 C 39.148438 57.273438 29.109375 62.707031 17.167969 60.886719 C 7.644531 59.433594 0.757812 50.894531 1.007812 40.839844 C 1.242188 31.367188 7.226562 23.8125 16.023438 21.886719 C 17.769531 21.46875 19.632812 21.257812 21.625 21.257812 C 22.132812 21.257812 22.636719 21.273438 23.128906 21.300781 Z M 21.566406 29.851562 C 18.84375 29.851562 16.847656 30.785156 15.585938 32.652344 C 14.324219 34.523438 13.691406 37.375 13.691406 41.210938 C 13.691406 45.0625 14.324219 47.925781 15.585938 49.808594 C 16.847656 51.6875 18.84375 52.625 21.566406 52.625 C 24.214844 52.625 26.175781 51.6875 27.425781 49.808594 C 28.675781 47.925781 29.292969 45.0625 29.292969 41.210938 C 29.292969 37.375 28.675781 34.523438 27.425781 32.652344 C 26.175781 30.785156 24.214844 29.851562 21.566406 29.851562 Z M 21.566406 29.851562 " fill-opacity="1" fill-rule="nonzero"/><path fill="#ffffff" d="M 103.007812 21.238281 C 104.890625 21.238281 106.667969 21.429688 108.335938 21.8125 C 113.265625 22.542969 117.40625 25.621094 120.511719 29.539062 C 121.714844 31.050781 122.550781 32.824219 122.890625 34.722656 C 123.5625 38.472656 124.042969 42.761719 123.066406 46.878906 C 120.601562 57.269531 110.519531 62.707031 98.535156 60.886719 C 88.976562 59.433594 82.066406 50.886719 82.316406 40.832031 C 82.550781 31.339844 88.578125 23.769531 97.433594 21.859375 C 99.171875 21.445312 101.027344 21.238281 103.007812 21.238281 Z M 102.953125 29.835938 C 100.214844 29.835938 98.214844 30.769531 96.949219 32.640625 C 95.679688 34.507812 95.046875 37.363281 95.046875 41.199219 C 95.046875 45.054688 95.679688 47.917969 96.949219 49.800781 C 98.214844 51.683594 100.214844 52.621094 102.953125 52.621094 C 105.609375 52.621094 107.578125 51.683594 108.828125 49.800781 C 110.085938 47.917969 110.707031 45.054688 110.707031 41.199219 C 110.707031 37.363281 110.085938 34.507812 108.828125 32.640625 C 107.574219 30.769531 105.609375 29.835938 102.953125 29.835938 Z M 102.953125 29.835938 " fill-opacity="1" fill-rule="nonzero"/><path stroke-linecap="butt" transform="matrix(0, 0.711558, -0.711558, 0, 299.3736, 4.133657)" fill="none" stroke-linejoin="miter" d="M -0.00118668 2.001779 L 98.001205 2.001779 " stroke="#ffffff" stroke-width="4" stroke-opacity="1" stroke-miterlimit="4"/><g fill="#ffffff" fill-opacity="1"><g transform="translate(322.290522, 31.884416)"><g><path d="M 16.578125 -14.421875 C 16.578125 -13.378906 16.328125 -12.394531 15.828125 -11.46875 C 15.335938 -10.539062 14.550781 -9.785156 13.46875 -9.203125 C 12.382812 -8.617188 11 -8.328125 9.3125 -8.328125 L 5.578125 -8.328125 L 5.578125 0 L 2.21875 0 L 2.21875 -20.53125 L 9.3125 -20.53125 C 10.882812 -20.53125 12.21875 -20.257812 13.3125 -19.71875 C 14.40625 -19.175781 15.222656 -18.441406 15.765625 -17.515625 C 16.304688 -16.585938 16.578125 -15.554688 16.578125 -14.421875 Z M 9.3125 -11.078125 C 10.59375 -11.078125 11.546875 -11.367188 12.171875 -11.953125 C 12.804688 -12.535156 13.125 -13.359375 13.125 -14.421875 C 13.125 -16.660156 11.851562 -17.78125 9.3125 -17.78125 L 5.578125 -17.78125 L 5.578125 -11.078125 Z M 9.3125 -11.078125 "/></g></g></g><g fill="#ffffff" fill-opacity="1"><g transform="translate(339.719501, 31.884416)"><g><path d="M 5.578125 -13.921875 C 6.078125 -14.742188 6.734375 -15.382812 7.546875 -15.84375 C 8.367188 -16.3125 9.335938 -16.546875 10.453125 -16.546875 L 10.453125 -13.0625 L 9.609375 -13.0625 C 8.285156 -13.0625 7.28125 -12.722656 6.59375 -12.046875 C 5.914062 -11.378906 5.578125 -10.21875 5.578125 -8.5625 L 5.578125 0 L 2.21875 0 L 2.21875 -16.28125 L 5.578125 -16.28125 Z M 5.578125 -13.921875 "/></g></g></g><g fill="#ffffff" fill-opacity="1"><g transform="translate(350.915376, 31.884416)"><g><path d="M 17.140625 -8.546875 C 17.140625 -7.929688 17.097656 -7.378906 17.015625 -6.890625 L 4.578125 -6.890625 C 4.679688 -5.585938 5.164062 -4.539062 6.03125 -3.75 C 6.894531 -2.96875 7.957031 -2.578125 9.21875 -2.578125 C 11.03125 -2.578125 12.3125 -3.332031 13.0625 -4.84375 L 16.6875 -4.84375 C 16.195312 -3.34375 15.304688 -2.113281 14.015625 -1.15625 C 12.722656 -0.207031 11.125 0.265625 9.21875 0.265625 C 7.664062 0.265625 6.269531 -0.0820312 5.03125 -0.78125 C 3.800781 -1.476562 2.835938 -2.460938 2.140625 -3.734375 C 1.441406 -5.003906 1.09375 -6.476562 1.09375 -8.15625 C 1.09375 -9.832031 1.429688 -11.304688 2.109375 -12.578125 C 2.785156 -13.847656 3.738281 -14.828125 4.96875 -15.515625 C 6.207031 -16.203125 7.625 -16.546875 9.21875 -16.546875 C 10.75 -16.546875 12.113281 -16.207031 13.3125 -15.53125 C 14.519531 -14.863281 15.457031 -13.925781 16.125 -12.71875 C 16.800781 -11.507812 17.140625 -10.117188 17.140625 -8.546875 Z M 13.625 -9.609375 C 13.601562 -10.847656 13.15625 -11.835938 12.28125 -12.578125 C 11.414062 -13.328125 10.347656 -13.703125 9.078125 -13.703125 C 7.910156 -13.703125 6.910156 -13.332031 6.078125 -12.59375 C 5.253906 -11.863281 4.765625 -10.867188 4.609375 -9.609375 Z M 13.625 -9.609375 "/></g></g></g><g fill="#ffffff" fill-opacity="1"><g transform="translate(368.994242, 31.884416)"><g><path d="M 1.09375 -8.15625 C 1.09375 -9.832031 1.429688 -11.304688 2.109375 -12.578125 C 2.785156 -13.847656 3.722656 -14.828125 4.921875 -15.515625 C 6.128906 -16.203125 7.515625 -16.546875 9.078125 -16.546875 C 11.046875 -16.546875 12.671875 -16.078125 13.953125 -15.140625 C 15.242188 -14.203125 16.117188 -12.867188 16.578125 -11.140625 L 12.9375 -11.140625 C 12.644531 -11.941406 12.171875 -12.566406 11.515625 -13.015625 C 10.867188 -13.472656 10.054688 -13.703125 9.078125 -13.703125 C 7.691406 -13.703125 6.585938 -13.210938 5.765625 -12.234375 C 4.953125 -11.265625 4.546875 -9.90625 4.546875 -8.15625 C 4.546875 -6.40625 4.953125 -5.035156 5.765625 -4.046875 C 6.585938 -3.066406 7.691406 -2.578125 9.078125 -2.578125 C 11.023438 -2.578125 12.3125 -3.429688 12.9375 -5.140625 L 16.578125 -5.140625 C 16.097656 -3.484375 15.207031 -2.164062 13.90625 -1.1875 C 12.613281 -0.21875 11.003906 0.265625 9.078125 0.265625 C 7.515625 0.265625 6.128906 -0.0820312 4.921875 -0.78125 C 3.722656 -1.476562 2.785156 -2.460938 2.109375 -3.734375 C 1.429688 -5.003906 1.09375 -6.476562 1.09375 -8.15625 Z M 1.09375 -8.15625 "/></g></g></g><g fill="#ffffff" fill-opacity="1"><g transform="translate(386.570915, 31.884416)"><g><path d="M 3.9375 -18.4375 C 3.320312 -18.4375 2.804688 -18.640625 2.390625 -19.046875 C 1.972656 -19.460938 1.765625 -19.976562 1.765625 -20.59375 C 1.765625 -21.207031 1.972656 -21.71875 2.390625 -22.125 C 2.804688 -22.539062 3.320312 -22.75 3.9375 -22.75 C 4.519531 -22.75 5.019531 -22.539062 5.4375 -22.125 C 5.851562 -21.71875 6.0625 -21.207031 6.0625 -20.59375 C 6.0625 -19.976562 5.851562 -19.460938 5.4375 -19.046875 C 5.019531 -18.640625 4.519531 -18.4375 3.9375 -18.4375 Z M 5.578125 -16.28125 L 5.578125 0 L 2.21875 0 L 2.21875 -16.28125 Z M 5.578125 -16.28125 "/></g></g></g><g fill="#ffffff" fill-opacity="1"><g transform="translate(394.2219, 31.884416)"><g><path d="M 8.125 0.265625 C 6.84375 0.265625 5.691406 0.0351562 4.671875 -0.421875 C 3.660156 -0.890625 2.859375 -1.519531 2.265625 -2.3125 C 1.679688 -3.113281 1.367188 -4.007812 1.328125 -5 L 4.8125 -5 C 4.875 -4.300781 5.203125 -3.722656 5.796875 -3.265625 C 6.398438 -2.804688 7.15625 -2.578125 8.0625 -2.578125 C 9.007812 -2.578125 9.742188 -2.753906 10.265625 -3.109375 C 10.785156 -3.472656 11.046875 -3.941406 11.046875 -4.515625 C 11.046875 -5.128906 10.753906 -5.582031 10.171875 -5.875 C 9.597656 -6.175781 8.679688 -6.503906 7.421875 -6.859375 C 6.191406 -7.191406 5.191406 -7.515625 4.421875 -7.828125 C 3.660156 -8.140625 3 -8.617188 2.4375 -9.265625 C 1.875 -9.921875 1.59375 -10.78125 1.59375 -11.84375 C 1.59375 -12.707031 1.847656 -13.5 2.359375 -14.21875 C 2.867188 -14.945312 3.601562 -15.515625 4.5625 -15.921875 C 5.519531 -16.335938 6.617188 -16.546875 7.859375 -16.546875 C 9.710938 -16.546875 11.203125 -16.078125 12.328125 -15.140625 C 13.460938 -14.203125 14.070312 -12.925781 14.15625 -11.3125 L 10.78125 -11.3125 C 10.726562 -12.039062 10.429688 -12.617188 9.890625 -13.046875 C 9.359375 -13.484375 8.640625 -13.703125 7.734375 -13.703125 C 6.847656 -13.703125 6.171875 -13.535156 5.703125 -13.203125 C 5.234375 -12.867188 5 -12.425781 5 -11.875 C 5 -11.445312 5.15625 -11.082031 5.46875 -10.78125 C 5.78125 -10.488281 6.160156 -10.257812 6.609375 -10.09375 C 7.066406 -9.925781 7.738281 -9.710938 8.625 -9.453125 C 9.8125 -9.140625 10.78125 -8.816406 11.53125 -8.484375 C 12.289062 -8.160156 12.945312 -7.679688 13.5 -7.046875 C 14.050781 -6.421875 14.335938 -5.585938 14.359375 -4.546875 C 14.359375 -3.617188 14.101562 -2.789062 13.59375 -2.0625 C 13.082031 -1.332031 12.359375 -0.757812 11.421875 -0.34375 C 10.484375 0.0625 9.382812 0.265625 8.125 0.265625 Z M 8.125 0.265625 "/></g></g></g><g fill="#ffffff" fill-opacity="1"><g transform="translate(409.84889, 31.884416)"><g><path d="M 3.9375 -18.4375 C 3.320312 -18.4375 2.804688 -18.640625 2.390625 -19.046875 C 1.972656 -19.460938 1.765625 -19.976562 1.765625 -20.59375 C 1.765625 -21.207031 1.972656 -21.71875 2.390625 -22.125 C 2.804688 -22.539062 3.320312 -22.75 3.9375 -22.75 C 4.519531 -22.75 5.019531 -22.539062 5.4375 -22.125 C 5.851562 -21.71875 6.0625 -21.207031 6.0625 -20.59375 C 6.0625 -19.976562 5.851562 -19.460938 5.4375 -19.046875 C 5.019531 -18.640625 4.519531 -18.4375 3.9375 -18.4375 Z M 5.578125 -16.28125 L 5.578125 0 L 2.21875 0 L 2.21875 -16.28125 Z M 5.578125 -16.28125 "/></g></g></g><g fill="#ffffff" fill-opacity="1"><g transform="translate(417.499875, 31.884416)"><g><path d="M 9.28125 0.265625 C 7.738281 0.265625 6.347656 -0.0820312 5.109375 -0.78125 C 3.867188 -1.476562 2.894531 -2.460938 2.1875 -3.734375 C 1.476562 -5.003906 1.125 -6.476562 1.125 -8.15625 C 1.125 -9.8125 1.488281 -11.28125 2.21875 -12.5625 C 2.945312 -13.84375 3.941406 -14.828125 5.203125 -15.515625 C 6.460938 -16.203125 7.867188 -16.546875 9.421875 -16.546875 C 10.984375 -16.546875 12.394531 -16.203125 13.65625 -15.515625 C 14.914062 -14.828125 15.910156 -13.84375 16.640625 -12.5625 C 17.367188 -11.28125 17.734375 -9.8125 17.734375 -8.15625 C 17.734375 -6.5 17.359375 -5.03125 16.609375 -3.75 C 15.859375 -2.46875 14.835938 -1.476562 13.546875 -0.78125 C 12.253906 -0.0820312 10.832031 0.265625 9.28125 0.265625 Z M 9.28125 -2.65625 C 10.144531 -2.65625 10.957031 -2.863281 11.71875 -3.28125 C 12.476562 -3.695312 13.09375 -4.316406 13.5625 -5.140625 C 14.03125 -5.960938 14.265625 -6.96875 14.265625 -8.15625 C 14.265625 -9.332031 14.035156 -10.328125 13.578125 -11.140625 C 13.128906 -11.960938 12.53125 -12.582031 11.78125 -13 C 11.039062 -13.414062 10.234375 -13.625 9.359375 -13.625 C 8.492188 -13.625 7.691406 -13.414062 6.953125 -13 C 6.210938 -12.582031 5.625 -11.960938 5.1875 -11.140625 C 4.757812 -10.328125 4.546875 -9.332031 4.546875 -8.15625 C 4.546875 -6.40625 4.992188 -5.050781 5.890625 -4.09375 C 6.785156 -3.132812 7.914062 -2.65625 9.28125 -2.65625 Z M 9.28125 -2.65625 "/></g></g></g><g fill="#ffffff" fill-opacity="1"><g transform="translate(436.199095, 31.884416)"><g><path d="M 10.4375 -16.546875 C 11.707031 -16.546875 12.847656 -16.28125 13.859375 -15.75 C 14.878906 -15.21875 15.675781 -14.425781 16.25 -13.375 C 16.820312 -12.332031 17.109375 -11.078125 17.109375 -9.609375 L 17.109375 0 L 13.765625 0 L 13.765625 -9.09375 C 13.765625 -10.550781 13.398438 -11.671875 12.671875 -12.453125 C 11.941406 -13.234375 10.945312 -13.625 9.6875 -13.625 C 8.425781 -13.625 7.425781 -13.234375 6.6875 -12.453125 C 5.945312 -11.671875 5.578125 -10.550781 5.578125 -9.09375 L 5.578125 0 L 2.21875 0 L 2.21875 -16.28125 L 5.578125 -16.28125 L 5.578125 -14.421875 C 6.128906 -15.085938 6.832031 -15.609375 7.6875 -15.984375 C 8.550781 -16.359375 9.46875 -16.546875 10.4375 -16.546875 Z M 10.4375 -16.546875 "/></g></g></g><g fill="#ffffff" fill-opacity="1"><g transform="translate(455.22327, 31.884416)"><g><path d="M 3.578125 0.203125 C 2.960938 0.203125 2.445312 0 2.03125 -0.40625 C 1.625 -0.820312 1.421875 -1.335938 1.421875 -1.953125 C 1.421875 -2.554688 1.625 -3.066406 2.03125 -3.484375 C 2.445312 -3.898438 2.960938 -4.109375 3.578125 -4.109375 C 4.171875 -4.109375 4.671875 -3.898438 5.078125 -3.484375 C 5.492188 -3.066406 5.703125 -2.554688 5.703125 -1.953125 C 5.703125 -1.335938 5.492188 -0.820312 5.078125 -0.40625 C 4.671875 0 4.171875 0.203125 3.578125 0.203125 Z M 3.578125 0.203125 "/></g></g></g><g fill="#ffffff" fill-opacity="1"><g transform="translate(462.194825, 31.884416)"><g/></g></g><g fill="#ffffff" fill-opacity="1"><g transform="translate(469.727647, 31.884416)"><g><path d="M 16.578125 -14.421875 C 16.578125 -13.378906 16.328125 -12.394531 15.828125 -11.46875 C 15.335938 -10.539062 14.550781 -9.785156 13.46875 -9.203125 C 12.382812 -8.617188 11 -8.328125 9.3125 -8.328125 L 5.578125 -8.328125 L 5.578125 0 L 2.21875 0 L 2.21875 -20.53125 L 9.3125 -20.53125 C 10.882812 -20.53125 12.21875 -20.257812 13.3125 -19.71875 C 14.40625 -19.175781 15.222656 -18.441406 15.765625 -17.515625 C 16.304688 -16.585938 16.578125 -15.554688 16.578125 -14.421875 Z M 9.3125 -11.078125 C 10.59375 -11.078125 11.546875 -11.367188 12.171875 -11.953125 C 12.804688 -12.535156 13.125 -13.359375 13.125 -14.421875 C 13.125 -16.660156 11.851562 -17.78125 9.3125 -17.78125 L 5.578125 -17.78125 L 5.578125 -11.078125 Z M 9.3125 -11.078125 "/></g></g></g><g fill="#ffffff" fill-opacity="1"><g transform="translate(487.156626, 31.884416)"><g><path d="M 9.28125 0.265625 C 7.738281 0.265625 6.347656 -0.0820312 5.109375 -0.78125 C 3.867188 -1.476562 2.894531 -2.460938 2.1875 -3.734375 C 1.476562 -5.003906 1.125 -6.476562 1.125 -8.15625 C 1.125 -9.8125 1.488281 -11.28125 2.21875 -12.5625 C 2.945312 -13.84375 3.941406 -14.828125 5.203125 -15.515625 C 6.460938 -16.203125 7.867188 -16.546875 9.421875 -16.546875 C 10.984375 -16.546875 12.394531 -16.203125 13.65625 -15.515625 C 14.914062 -14.828125 15.910156 -13.84375 16.640625 -12.5625 C 17.367188 -11.28125 17.734375 -9.8125 17.734375 -8.15625 C 17.734375 -6.5 17.359375 -5.03125 16.609375 -3.75 C 15.859375 -2.46875 14.835938 -1.476562 13.546875 -0.78125 C 12.253906 -0.0820312 10.832031 0.265625 9.28125 0.265625 Z M 9.28125 -2.65625 C 10.144531 -2.65625 10.957031 -2.863281 11.71875 -3.28125 C 12.476562 -3.695312 13.09375 -4.316406 13.5625 -5.140625 C 14.03125 -5.960938 14.265625 -6.96875 14.265625 -8.15625 C 14.265625 -9.332031 14.035156 -10.328125 13.578125 -11.140625 C 13.128906 -11.960938 12.53125 -12.582031 11.78125 -13 C 11.039062 -13.414062 10.234375 -13.625 9.359375 -13.625 C 8.492188 -13.625 7.691406 -13.414062 6.953125 -13 C 6.210938 -12.582031 5.625 -11.960938 5.1875 -11.140625 C 4.757812 -10.328125 4.546875 -9.332031 4.546875 -8.15625 C 4.546875 -6.40625 4.992188 -5.050781 5.890625 -4.09375 C 6.785156 -3.132812 7.914062 -2.65625 9.28125 -2.65625 Z M 9.28125 -2.65625 "/></g></g></g><g fill="#ffffff" fill-opacity="1"><g transform="translate(505.855835, 31.884416)"><g><path d="M 24.078125 -16.28125 L 19.03125 0 L 15.484375 0 L 12.203125 -12.03125 L 8.921875 0 L 5.375 0 L 0.296875 -16.28125 L 3.71875 -16.28125 L 7.125 -3.1875 L 10.578125 -16.28125 L 14.09375 -16.28125 L 17.40625 -3.25 L 20.765625 -16.28125 Z M 24.078125 -16.28125 "/></g></g></g><g fill="#ffffff" fill-opacity="1"><g transform="translate(530.079206, 31.884416)"><g><path d="M 17.140625 -8.546875 C 17.140625 -7.929688 17.097656 -7.378906 17.015625 -6.890625 L 4.578125 -6.890625 C 4.679688 -5.585938 5.164062 -4.539062 6.03125 -3.75 C 6.894531 -2.96875 7.957031 -2.578125 9.21875 -2.578125 C 11.03125 -2.578125 12.3125 -3.332031 13.0625 -4.84375 L 16.6875 -4.84375 C 16.195312 -3.34375 15.304688 -2.113281 14.015625 -1.15625 C 12.722656 -0.207031 11.125 0.265625 9.21875 0.265625 C 7.664062 0.265625 6.269531 -0.0820312 5.03125 -0.78125 C 3.800781 -1.476562 2.835938 -2.460938 2.140625 -3.734375 C 1.441406 -5.003906 1.09375 -6.476562 1.09375 -8.15625 C 1.09375 -9.832031 1.429688 -11.304688 2.109375 -12.578125 C 2.785156 -13.847656 3.738281 -14.828125 4.96875 -15.515625 C 6.207031 -16.203125 7.625 -16.546875 9.21875 -16.546875 C 10.75 -16.546875 12.113281 -16.207031 13.3125 -15.53125 C 14.519531 -14.863281 15.457031 -13.925781 16.125 -12.71875 C 16.800781 -11.507812 17.140625 -10.117188 17.140625 -8.546875 Z M 13.625 -9.609375 C 13.601562 -10.847656 13.15625 -11.835938 12.28125 -12.578125 C 11.414062 -13.328125 10.347656 -13.703125 9.078125 -13.703125 C 7.910156 -13.703125 6.910156 -13.332031 6.078125 -12.59375 C 5.253906 -11.863281 4.765625 -10.867188 4.609375 -9.609375 Z M 13.625 -9.609375 "/></g></g></g><g fill="#ffffff" fill-opacity="1"><g transform="translate(548.15805, 31.884416)"><g><path d="M 5.578125 -13.921875 C 6.078125 -14.742188 6.734375 -15.382812 7.546875 -15.84375 C 8.367188 -16.3125 9.335938 -16.546875 10.453125 -16.546875 L 10.453125 -13.0625 L 9.609375 -13.0625 C 8.285156 -13.0625 7.28125 -12.722656 6.59375 -12.046875 C 5.914062 -11.378906 5.578125 -10.21875 5.578125 -8.5625 L 5.578125 0 L 2.21875 0 L 2.21875 -16.28125 L 5.578125 -16.28125 Z M 5.578125 -13.921875 "/></g></g></g><g fill="#ffffff" fill-opacity="1"><g transform="translate(559.353926, 31.884416)"><g><path d="M 3.578125 0.203125 C 2.960938 0.203125 2.445312 0 2.03125 -0.40625 C 1.625 -0.820312 1.421875 -1.335938 1.421875 -1.953125 C 1.421875 -2.554688 1.625 -3.066406 2.03125 -3.484375 C 2.445312 -3.898438 2.960938 -4.109375 3.578125 -4.109375 C 4.171875 -4.109375 4.671875 -3.898438 5.078125 -3.484375 C 5.492188 -3.066406 5.703125 -2.554688 5.703125 -1.953125 C 5.703125 -1.335938 5.492188 -0.820312 5.078125 -0.40625 C 4.671875 0 4.171875 0.203125 3.578125 0.203125 Z M 3.578125 0.203125 "/></g></g></g><g fill="#ffffff" fill-opacity="1"><g transform="translate(322.290522, 66.750755)"><g><path d="M 16.578125 -14.421875 C 16.578125 -13.378906 16.328125 -12.394531 15.828125 -11.46875 C 15.335938 -10.539062 14.550781 -9.785156 13.46875 -9.203125 C 12.382812 -8.617188 11 -8.328125 9.3125 -8.328125 L 5.578125 -8.328125 L 5.578125 0 L 2.21875 0 L 2.21875 -20.53125 L 9.3125 -20.53125 C 10.882812 -20.53125 12.21875 -20.257812 13.3125 -19.71875 C 14.40625 -19.175781 15.222656 -18.441406 15.765625 -17.515625 C 16.304688 -16.585938 16.578125 -15.554688 16.578125 -14.421875 Z M 9.3125 -11.078125 C 10.59375 -11.078125 11.546875 -11.367188 12.171875 -11.953125 C 12.804688 -12.535156 13.125 -13.359375 13.125 -14.421875 C 13.125 -16.660156 11.851562 -17.78125 9.3125 -17.78125 L 5.578125 -17.78125 L 5.578125 -11.078125 Z M 9.3125 -11.078125 "/></g></g></g><g fill="#ffffff" fill-opacity="1"><g transform="translate(339.719501, 66.750755)"><g><path d="M 1.09375 -8.21875 C 1.09375 -9.851562 1.429688 -11.300781 2.109375 -12.5625 C 2.785156 -13.820312 3.707031 -14.800781 4.875 -15.5 C 6.050781 -16.195312 7.351562 -16.546875 8.78125 -16.546875 C 10.0625 -16.546875 11.175781 -16.296875 12.125 -15.796875 C 13.082031 -15.296875 13.847656 -14.671875 14.421875 -13.921875 L 14.421875 -16.28125 L 17.8125 -16.28125 L 17.8125 0 L 14.421875 0 L 14.421875 -2.421875 C 13.847656 -1.648438 13.066406 -1.007812 12.078125 -0.5 C 11.097656 0.0078125 9.976562 0.265625 8.71875 0.265625 C 7.320312 0.265625 6.039062 -0.09375 4.875 -0.8125 C 3.707031 -1.53125 2.785156 -2.535156 2.109375 -3.828125 C 1.429688 -5.117188 1.09375 -6.582031 1.09375 -8.21875 Z M 14.421875 -8.15625 C 14.421875 -9.28125 14.1875 -10.253906 13.71875 -11.078125 C 13.257812 -11.910156 12.65625 -12.539062 11.90625 -12.96875 C 11.15625 -13.40625 10.347656 -13.625 9.484375 -13.625 C 8.617188 -13.625 7.8125 -13.410156 7.0625 -12.984375 C 6.3125 -12.554688 5.703125 -11.929688 5.234375 -11.109375 C 4.773438 -10.296875 4.546875 -9.332031 4.546875 -8.21875 C 4.546875 -7.09375 4.773438 -6.101562 5.234375 -5.25 C 5.703125 -4.40625 6.316406 -3.757812 7.078125 -3.3125 C 7.835938 -2.875 8.640625 -2.65625 9.484375 -2.65625 C 10.347656 -2.65625 11.15625 -2.867188 11.90625 -3.296875 C 12.65625 -3.734375 13.257812 -4.367188 13.71875 -5.203125 C 14.1875 -6.046875 14.421875 -7.03125 14.421875 -8.15625 Z M 14.421875 -8.15625 "/></g></g></g><g fill="#ffffff" fill-opacity="1"><g transform="translate(359.600355, 66.750755)"><g><path d="M 5.578125 -13.921875 C 6.078125 -14.742188 6.734375 -15.382812 7.546875 -15.84375 C 8.367188 -16.3125 9.335938 -16.546875 10.453125 -16.546875 L 10.453125 -13.0625 L 9.609375 -13.0625 C 8.285156 -13.0625 7.28125 -12.722656 6.59375 -12.046875 C 5.914062 -11.378906 5.578125 -10.21875 5.578125 -8.5625 L 5.578125 0 L 2.21875 0 L 2.21875 -16.28125 L 5.578125 -16.28125 Z M 5.578125 -13.921875 "/></g></g></g><g fill="#ffffff" fill-opacity="1"><g transform="translate(370.796231, 66.750755)"><g><path d="M 6.140625 -13.53125 L 6.140625 -4.515625 C 6.140625 -3.910156 6.28125 -3.472656 6.5625 -3.203125 C 6.851562 -2.941406 7.34375 -2.8125 8.03125 -2.8125 L 10.109375 -2.8125 L 10.109375 0 L 7.453125 0 C 5.929688 0 4.765625 -0.351562 3.953125 -1.0625 C 3.148438 -1.769531 2.75 -2.921875 2.75 -4.515625 L 2.75 -13.53125 L 0.828125 -13.53125 L 0.828125 -16.28125 L 2.75 -16.28125 L 2.75 -20.328125 L 6.140625 -20.328125 L 6.140625 -16.28125 L 10.109375 -16.28125 L 10.109375 -13.53125 Z M 6.140625 -13.53125 "/></g></g></g><g fill="#ffffff" fill-opacity="1"><g transform="translate(381.63762, 66.750755)"><g><path d="M 10.4375 -16.546875 C 11.707031 -16.546875 12.847656 -16.28125 13.859375 -15.75 C 14.878906 -15.21875 15.675781 -14.425781 16.25 -13.375 C 16.820312 -12.332031 17.109375 -11.078125 17.109375 -9.609375 L 17.109375 0 L 13.765625 0 L 13.765625 -9.09375 C 13.765625 -10.550781 13.398438 -11.671875 12.671875 -12.453125 C 11.941406 -13.234375 10.945312 -13.625 9.6875 -13.625 C 8.425781 -13.625 7.425781 -13.234375 6.6875 -12.453125 C 5.945312 -11.671875 5.578125 -10.550781 5.578125 -9.09375 L 5.578125 0 L 2.21875 0 L 2.21875 -16.28125 L 5.578125 -16.28125 L 5.578125 -14.421875 C 6.128906 -15.085938 6.832031 -15.609375 7.6875 -15.984375 C 8.550781 -16.359375 9.46875 -16.546875 10.4375 -16.546875 Z M 10.4375 -16.546875 "/></g></g></g><g fill="#ffffff" fill-opacity="1"><g transform="translate(400.661795, 66.750755)"><g><path d="M 17.140625 -8.546875 C 17.140625 -7.929688 17.097656 -7.378906 17.015625 -6.890625 L 4.578125 -6.890625 C 4.679688 -5.585938 5.164062 -4.539062 6.03125 -3.75 C 6.894531 -2.96875 7.957031 -2.578125 9.21875 -2.578125 C 11.03125 -2.578125 12.3125 -3.332031 13.0625 -4.84375 L 16.6875 -4.84375 C 16.195312 -3.34375 15.304688 -2.113281 14.015625 -1.15625 C 12.722656 -0.207031 11.125 0.265625 9.21875 0.265625 C 7.664062 0.265625 6.269531 -0.0820312 5.03125 -0.78125 C 3.800781 -1.476562 2.835938 -2.460938 2.140625 -3.734375 C 1.441406 -5.003906 1.09375 -6.476562 1.09375 -8.15625 C 1.09375 -9.832031 1.429688 -11.304688 2.109375 -12.578125 C 2.785156 -13.847656 3.738281 -14.828125 4.96875 -15.515625 C 6.207031 -16.203125 7.625 -16.546875 9.21875 -16.546875 C 10.75 -16.546875 12.113281 -16.207031 13.3125 -15.53125 C 14.519531 -14.863281 15.457031 -13.925781 16.125 -12.71875 C 16.800781 -11.507812 17.140625 -10.117188 17.140625 -8.546875 Z M 13.625 -9.609375 C 13.601562 -10.847656 13.15625 -11.835938 12.28125 -12.578125 C 11.414062 -13.328125 10.347656 -13.703125 9.078125 -13.703125 C 7.910156 -13.703125 6.910156 -13.332031 6.078125 -12.59375 C 5.253906 -11.863281 4.765625 -10.867188 4.609375 -9.609375 Z M 13.625 -9.609375 "/></g></g></g><g fill="#ffffff" fill-opacity="1"><g transform="translate(418.740661, 66.750755)"><g><path d="M 5.578125 -13.921875 C 6.078125 -14.742188 6.734375 -15.382812 7.546875 -15.84375 C 8.367188 -16.3125 9.335938 -16.546875 10.453125 -16.546875 L 10.453125 -13.0625 L 9.609375 -13.0625 C 8.285156 -13.0625 7.28125 -12.722656 6.59375 -12.046875 C 5.914062 -11.378906 5.578125 -10.21875 5.578125 -8.5625 L 5.578125 0 L 2.21875 0 L 2.21875 -16.28125 L 5.578125 -16.28125 Z M 5.578125 -13.921875 "/></g></g></g><g fill="#ffffff" fill-opacity="1"><g transform="translate(429.936537, 66.750755)"><g><path d="M 8.125 0.265625 C 6.84375 0.265625 5.691406 0.0351562 4.671875 -0.421875 C 3.660156 -0.890625 2.859375 -1.519531 2.265625 -2.3125 C 1.679688 -3.113281 1.367188 -4.007812 1.328125 -5 L 4.8125 -5 C 4.875 -4.300781 5.203125 -3.722656 5.796875 -3.265625 C 6.398438 -2.804688 7.15625 -2.578125 8.0625 -2.578125 C 9.007812 -2.578125 9.742188 -2.753906 10.265625 -3.109375 C 10.785156 -3.472656 11.046875 -3.941406 11.046875 -4.515625 C 11.046875 -5.128906 10.753906 -5.582031 10.171875 -5.875 C 9.597656 -6.175781 8.679688 -6.503906 7.421875 -6.859375 C 6.191406 -7.191406 5.191406 -7.515625 4.421875 -7.828125 C 3.660156 -8.140625 3 -8.617188 2.4375 -9.265625 C 1.875 -9.921875 1.59375 -10.78125 1.59375 -11.84375 C 1.59375 -12.707031 1.847656 -13.5 2.359375 -14.21875 C 2.867188 -14.945312 3.601562 -15.515625 4.5625 -15.921875 C 5.519531 -16.335938 6.617188 -16.546875 7.859375 -16.546875 C 9.710938 -16.546875 11.203125 -16.078125 12.328125 -15.140625 C 13.460938 -14.203125 14.070312 -12.925781 14.15625 -11.3125 L 10.78125 -11.3125 C 10.726562 -12.039062 10.429688 -12.617188 9.890625 -13.046875 C 9.359375 -13.484375 8.640625 -13.703125 7.734375 -13.703125 C 6.847656 -13.703125 6.171875 -13.535156 5.703125 -13.203125 C 5.234375 -12.867188 5 -12.425781 5 -11.875 C 5 -11.445312 5.15625 -11.082031 5.46875 -10.78125 C 5.78125 -10.488281 6.160156 -10.257812 6.609375 -10.09375 C 7.066406 -9.925781 7.738281 -9.710938 8.625 -9.453125 C 9.8125 -9.140625 10.78125 -8.816406 11.53125 -8.484375 C 12.289062 -8.160156 12.945312 -7.679688 13.5 -7.046875 C 14.050781 -6.421875 14.335938 -5.585938 14.359375 -4.546875 C 14.359375 -3.617188 14.101562 -2.789062 13.59375 -2.0625 C 13.082031 -1.332031 12.359375 -0.757812 11.421875 -0.34375 C 10.484375 0.0625 9.382812 0.265625 8.125 0.265625 Z M 8.125 0.265625 "/></g></g></g><g fill="#ffffff" fill-opacity="1"><g transform="translate(445.563527, 66.750755)"><g><path d="M 10.640625 -16.546875 C 11.878906 -16.546875 12.984375 -16.28125 13.953125 -15.75 C 14.929688 -15.21875 15.703125 -14.425781 16.265625 -13.375 C 16.828125 -12.332031 17.109375 -11.078125 17.109375 -9.609375 L 17.109375 0 L 13.765625 0 L 13.765625 -9.09375 C 13.765625 -10.550781 13.398438 -11.671875 12.671875 -12.453125 C 11.941406 -13.234375 10.945312 -13.625 9.6875 -13.625 C 8.425781 -13.625 7.425781 -13.234375 6.6875 -12.453125 C 5.945312 -11.671875 5.578125 -10.550781 5.578125 -9.09375 L 5.578125 0 L 2.21875 0 L 2.21875 -21.859375 L 5.578125 -21.859375 L 5.578125 -14.390625 C 6.148438 -15.078125 6.875 -15.609375 7.75 -15.984375 C 8.632812 -16.359375 9.597656 -16.546875 10.640625 -16.546875 Z M 10.640625 -16.546875 "/></g></g></g><g fill="#ffffff" fill-opacity="1"><g transform="translate(464.587702, 66.750755)"><g><path d="M 3.9375 -18.4375 C 3.320312 -18.4375 2.804688 -18.640625 2.390625 -19.046875 C 1.972656 -19.460938 1.765625 -19.976562 1.765625 -20.59375 C 1.765625 -21.207031 1.972656 -21.71875 2.390625 -22.125 C 2.804688 -22.539062 3.320312 -22.75 3.9375 -22.75 C 4.519531 -22.75 5.019531 -22.539062 5.4375 -22.125 C 5.851562 -21.71875 6.0625 -21.207031 6.0625 -20.59375 C 6.0625 -19.976562 5.851562 -19.460938 5.4375 -19.046875 C 5.019531 -18.640625 4.519531 -18.4375 3.9375 -18.4375 Z M 5.578125 -16.28125 L 5.578125 0 L 2.21875 0 L 2.21875 -16.28125 Z M 5.578125 -16.28125 "/></g></g></g><g fill="#ffffff" fill-opacity="1"><g transform="translate(472.238687, 66.750755)"><g><path d="M 5.578125 -13.890625 C 6.148438 -14.640625 6.925781 -15.269531 7.90625 -15.78125 C 8.894531 -16.289062 10.007812 -16.546875 11.25 -16.546875 C 12.675781 -16.546875 13.972656 -16.195312 15.140625 -15.5 C 16.316406 -14.800781 17.238281 -13.820312 17.90625 -12.5625 C 18.570312 -11.300781 18.90625 -9.851562 18.90625 -8.21875 C 18.90625 -6.582031 18.570312 -5.117188 17.90625 -3.828125 C 17.238281 -2.535156 16.316406 -1.53125 15.140625 -0.8125 C 13.972656 -0.09375 12.675781 0.265625 11.25 0.265625 C 10.007812 0.265625 8.90625 0.015625 7.9375 -0.484375 C 6.976562 -0.984375 6.191406 -1.609375 5.578125 -2.359375 L 5.578125 7.734375 L 2.21875 7.734375 L 2.21875 -16.28125 L 5.578125 -16.28125 Z M 15.484375 -8.21875 C 15.484375 -9.332031 15.25 -10.296875 14.78125 -11.109375 C 14.320312 -11.929688 13.710938 -12.554688 12.953125 -12.984375 C 12.191406 -13.410156 11.378906 -13.625 10.515625 -13.625 C 9.671875 -13.625 8.867188 -13.40625 8.109375 -12.96875 C 7.347656 -12.539062 6.734375 -11.910156 6.265625 -11.078125 C 5.804688 -10.253906 5.578125 -9.28125 5.578125 -8.15625 C 5.578125 -7.03125 5.804688 -6.046875 6.265625 -5.203125 C 6.734375 -4.367188 7.347656 -3.734375 8.109375 -3.296875 C 8.867188 -2.867188 9.671875 -2.65625 10.515625 -2.65625 C 11.378906 -2.65625 12.191406 -2.875 12.953125 -3.3125 C 13.710938 -3.757812 14.320312 -4.40625 14.78125 -5.25 C 15.25 -6.101562 15.484375 -7.09375 15.484375 -8.21875 Z M 15.484375 -8.21875 "/></g></g></g></g></g></svg>