<svg xmlns="http://www.w3.org/2000/svg" xmlns:xlink="http://www.w3.org/1999/xlink" width="800" zoomAndPan="magnify" viewBox="0 0 600 149.999998" height="200" preserveAspectRatio="xMidYMid meet" version="1.0"><defs><clipPath id="3e0c35dae1"><path d="M 482 47 L 552.808594 47 L 552.808594 126 L 482 126 Z M 482 47 " clip-rule="nonzero"/></clipPath><clipPath id="d2fbb88d48"><path d="M 47.308594 48 L 132 48 L 132 126 L 47.308594 126 Z M 47.308594 48 " clip-rule="nonzero"/></clipPath></defs><path fill="#000000" d="M 341.25 83.808594 L 341.25 125.546875 L 362.710938 125.542969 L 362.710938 83.828125 C 362.988281 81.4375 365.082031 71.03125 376.199219 70.746094 C 387.316406 70.460938 387.804688 65.148438 388.386719 60.070312 L 389.644531 49.089844 C 341.304688 43.929688 341.300781 83.171875 341.292969 83.289062 Z M 341.25 83.808594 " fill-opacity="1" fill-rule="nonzero"/><path fill="#000000" d="M 196.570312 57.371094 C 196.570312 58.964844 196.300781 60.507812 195.753906 62 C 195.207031 63.496094 194.492188 64.714844 193.597656 65.664062 L 161.441406 108.375 L 195.828125 108.375 L 195.828125 125.546875 L 134.929688 125.546875 L 134.929688 116.136719 C 134.929688 115.191406 135.179688 114 135.671875 112.554688 C 136.167969 111.109375 136.910156 109.765625 137.898438 108.519531 L 170.355469 65.289062 L 137.007812 65.289062 L 137.007812 48.113281 L 196.570312 48.113281 Z M 196.570312 57.371094 " fill-opacity="1" fill-rule="nonzero"/><path fill="#000000" d="M 297.082031 125.546875 L 297.082031 64.207031 L 292.03125 63.164062 C 290.296875 62.765625 288.882812 62.148438 287.792969 61.300781 C 286.75 60.460938 286.230469 59.21875 286.230469 57.582031 L 286.230469 48.5 L 297.082031 48.5 L 297.082031 44.109375 C 297.082031 39.6875 297.78125 35.695312 299.164062 32.121094 C 300.601562 28.546875 302.636719 25.496094 305.261719 22.964844 C 307.9375 20.433594 311.183594 18.472656 315 17.082031 C 318.8125 15.695312 323.152344 15 328.007812 15 C 329.890625 15 331.628906 15.125 333.214844 15.371094 C 334.796875 15.570312 336.457031 15.917969 338.195312 16.414062 L 337.746094 27.652344 C 337.695312 28.449219 337.5 29.117188 337.152344 29.664062 C 336.804688 30.160156 336.332031 30.582031 335.738281 30.933594 C 335.195312 31.230469 334.601562 31.453125 333.957031 31.601562 C 333.308594 31.75 332.664062 31.824219 332.023438 31.824219 C 329.988281 31.824219 328.183594 32.023438 326.597656 32.417969 C 325.011719 32.816406 323.671875 33.535156 322.582031 34.578125 C 321.542969 35.570312 320.75 36.910156 320.203125 38.597656 C 319.65625 40.234375 319.382812 42.320312 319.382812 44.851562 L 319.382812 48.5 L 337.449219 48.5 L 337.449219 64.28125 L 320.128906 64.28125 L 320.128906 125.546875 Z M 297.082031 125.546875 " fill-opacity="1" fill-rule="nonzero"/><path fill="#000000" d="M 476.25 48.113281 L 434.867188 145.523438 C 434.171875 147.0625 433.324219 148.1875 432.328125 148.878906 C 431.332031 149.625 429.738281 150 427.542969 150 L 410.214844 150 L 425.152344 118.671875 L 394.230469 48.113281 L 414.699219 48.113281 C 416.492188 48.113281 417.859375 48.511719 418.804688 49.308594 C 419.800781 50.105469 420.527344 51.046875 420.972656 52.140625 L 433.671875 85.480469 C 434.867188 88.515625 435.839844 91.625 436.585938 94.804688 C 437.132812 93.214844 437.679688 91.625 438.230469 90.03125 C 438.773438 88.441406 439.347656 86.875 439.945312 85.335938 L 451.449219 52.140625 C 451.898438 50.996094 452.695312 50.054688 453.839844 49.308594 C 454.988281 48.511719 456.230469 48.113281 457.574219 48.113281 Z M 476.25 48.113281 " fill-opacity="1" fill-rule="nonzero"/><g clip-path="url(#3e0c35dae1)"><path fill="#000000" d="M 504.105469 56.628906 C 505.59375 55.238281 507.128906 53.949219 508.710938 52.753906 C 510.292969 51.566406 511.976562 50.570312 513.761719 49.773438 C 515.59375 48.929688 517.542969 48.289062 519.625 47.839844 C 521.753906 47.339844 524.054688 47.09375 526.527344 47.09375 C 530.738281 47.09375 534.449219 47.839844 537.667969 49.328125 C 540.933594 50.769531 543.679688 52.804688 545.90625 55.4375 C 548.136719 58.023438 549.816406 61.125 550.957031 64.75 C 552.09375 68.328125 552.664062 72.226562 552.664062 76.449219 L 552.664062 125.546875 L 529.648438 125.546875 L 529.648438 76.449219 C 529.648438 72.671875 528.78125 69.742188 527.050781 67.65625 C 525.316406 65.519531 522.765625 64.453125 519.398438 64.453125 C 516.875 64.453125 514.5 65 512.273438 66.09375 C 510.09375 67.136719 507.964844 68.578125 505.890625 70.414062 L 505.890625 125.546875 L 482.871094 125.546875 L 482.871094 48.289062 L 497.128906 48.289062 C 500 48.289062 501.878906 49.578125 502.769531 52.160156 Z M 504.105469 56.628906 " fill-opacity="1" fill-rule="nonzero"/></g><path fill="#000000" d="M 244.601562 48.113281 C 250.273438 48.113281 255.4375 49.003906 260.105469 50.789062 C 264.765625 52.574219 268.777344 55.132812 272.117188 58.460938 C 275.457031 61.789062 278.054688 65.839844 279.902344 70.59375 C 281.753906 75.367188 282.664062 80.703125 282.664062 86.636719 C 282.664062 92.640625 281.753906 98.023438 279.902344 102.847656 C 278.054688 107.644531 275.457031 111.722656 272.117188 115.078125 C 268.777344 118.429688 264.765625 121.011719 260.105469 122.820312 C 255.4375 124.628906 250.273438 125.546875 244.601562 125.546875 C 238.882812 125.546875 233.695312 124.628906 229.003906 122.820312 C 224.320312 121.011719 220.285156 118.429688 216.898438 115.078125 C 213.507812 111.722656 210.890625 107.644531 209.039062 102.847656 C 207.1875 98.023438 206.25 92.640625 206.25 86.636719 C 206.25 80.703125 207.1875 75.367188 209.039062 70.59375 C 210.890625 65.839844 213.507812 61.789062 216.898438 58.460938 C 220.285156 55.132812 224.320312 52.570312 229.003906 50.789062 C 233.695312 49.003906 238.882812 48.113281 244.601562 48.113281 Z M 244.601562 64.78125 C 239.316406 64.78125 235.449219 66.589844 232.996094 70.210938 C 230.550781 73.824219 229.320312 79.351562 229.320312 86.78125 C 229.320312 94.234375 230.550781 99.78125 232.996094 103.425781 C 235.449219 107.066406 239.316406 108.878906 244.601562 108.878906 C 249.746094 108.878906 253.546875 107.066406 255.96875 103.425781 C 258.394531 99.78125 259.597656 94.234375 259.597656 86.78125 C 259.597656 79.351562 258.398438 73.824219 255.96875 70.210938 C 253.542969 66.589844 249.742188 64.78125 244.601562 64.78125 Z M 244.601562 64.78125 " fill-opacity="1" fill-rule="nonzero"/><g clip-path="url(#d2fbb88d48)"><path fill="#000000" d="M 90.152344 48.230469 C 102.996094 47.90625 116.257812 48.351562 131.875 48.351562 C 129.222656 56.476562 127.011719 60.519531 124.519531 68.660156 L 124.554688 68.84375 C 126.207031 77.183594 128.300781 87.734375 125.925781 97.761719 C 121.167969 117.878906 101.726562 128.394531 78.609375 124.875 C 60.171875 122.0625 46.839844 105.523438 47.320312 86.0625 C 47.777344 67.71875 59.359375 53.097656 76.394531 49.371094 C 79.769531 48.554688 83.386719 48.152344 87.234375 48.152344 C 88.222656 48.152344 89.195312 48.179688 90.152344 48.230469 Z M 87.125 64.785156 C 81.851562 64.785156 77.992188 66.59375 75.546875 70.210938 C 73.101562 73.828125 71.878906 79.351562 71.878906 86.78125 C 71.878906 94.234375 73.101562 99.78125 75.546875 103.421875 C 77.992188 107.0625 81.851562 108.878906 87.125 108.878906 C 92.253906 108.878906 96.046875 107.0625 98.464844 103.421875 C 100.886719 99.78125 102.085938 94.234375 102.085938 86.78125 C 102.085938 79.351562 100.886719 73.828125 98.464844 70.210938 C 96.046875 66.59375 92.253906 64.785156 87.125 64.785156 Z M 87.125 64.785156 " fill-opacity="1" fill-rule="nonzero"/></g><path fill="#000000" d="M 244.796875 48.113281 C 248.445312 48.113281 251.886719 48.484375 255.117188 49.222656 C 264.660156 50.636719 272.671875 56.601562 278.6875 64.1875 C 281.011719 67.109375 282.632812 70.542969 283.292969 74.222656 C 284.589844 81.480469 285.523438 89.78125 283.632812 97.75 C 278.855469 117.875 259.34375 128.398438 236.140625 124.875 C 217.636719 122.0625 204.25 105.515625 204.734375 86.046875 C 205.1875 67.667969 216.859375 53.011719 234.003906 49.3125 C 237.371094 48.511719 240.964844 48.113281 244.796875 48.113281 Z M 244.6875 64.753906 C 239.394531 64.753906 235.519531 66.566406 233.066406 70.1875 C 230.613281 73.804688 229.382812 79.332031 229.382812 86.761719 C 229.382812 94.21875 230.613281 99.765625 233.066406 103.414062 C 235.519531 107.054688 239.394531 108.867188 244.6875 108.867188 C 249.835938 108.867188 253.644531 107.054688 256.070312 103.414062 C 258.5 99.765625 259.703125 94.21875 259.703125 86.761719 C 259.703125 79.332031 258.5 73.804688 256.070312 70.1875 C 253.640625 66.566406 249.835938 64.753906 244.6875 64.753906 Z M 244.6875 64.753906 " fill-opacity="1" fill-rule="nonzero"/></svg>