<svg xmlns="http://www.w3.org/2000/svg" xmlns:xlink="http://www.w3.org/1999/xlink" width="800" zoomAndPan="magnify" viewBox="0 0 600 149.999998" height="200" preserveAspectRatio="xMidYMid meet" version="1.0"><defs><clipPath id="4e21620bf5"><path d="M 286 9.054688 L 338 9.054688 L 338 118 L 286 118 Z M 286 9.054688 " clip-rule="nonzero"/></clipPath><clipPath id="332ca44891"><path d="M 478 40 L 546.628906 40 L 546.628906 118 L 478 118 Z M 478 40 " clip-rule="nonzero"/></clipPath><clipPath id="c0ab128455"><path d="M 53.128906 41 L 136 41 L 136 118 L 53.128906 118 Z M 53.128906 41 " clip-rule="nonzero"/></clipPath></defs><path fill="#ffffff" d="M 340.296875 76.277344 L 340.296875 117.050781 L 361.261719 117.046875 L 361.261719 76.292969 C 361.53125 73.960938 363.578125 63.792969 374.4375 63.511719 C 385.300781 63.238281 385.777344 58.046875 386.34375 53.085938 L 387.574219 42.359375 C 340.347656 37.316406 340.34375 75.652344 340.339844 75.765625 Z M 340.296875 76.277344 " fill-opacity="1" fill-rule="nonzero"/><path fill="#ffffff" d="M 198.957031 50.449219 C 198.957031 52.003906 198.691406 53.511719 198.160156 54.972656 C 197.625 56.429688 196.925781 57.621094 196.054688 58.546875 L 164.640625 100.273438 L 198.230469 100.273438 L 198.230469 117.050781 L 138.738281 117.050781 L 138.738281 107.855469 C 138.738281 106.933594 138.984375 105.769531 139.464844 104.355469 C 139.949219 102.949219 140.675781 101.632812 141.640625 100.417969 L 173.347656 58.183594 L 140.769531 58.183594 L 140.769531 41.402344 L 198.957031 41.402344 Z M 198.957031 50.449219 " fill-opacity="1" fill-rule="nonzero"/><g clip-path="url(#4e21620bf5)"><path fill="#ffffff" d="M 297.148438 117.050781 L 297.148438 57.125 L 292.210938 56.105469 C 290.519531 55.71875 289.136719 55.113281 288.074219 54.289062 C 287.054688 53.464844 286.546875 52.253906 286.546875 50.652344 L 286.546875 41.78125 L 297.148438 41.78125 L 297.148438 37.492188 C 297.148438 33.175781 297.828125 29.273438 299.183594 25.78125 C 300.585938 22.289062 302.574219 19.308594 305.140625 16.835938 C 307.75 14.363281 310.925781 12.449219 314.652344 11.089844 C 318.378906 9.734375 322.617188 9.054688 327.359375 9.054688 C 329.203125 9.054688 330.894531 9.175781 332.445312 9.417969 C 333.992188 9.613281 335.613281 9.953125 337.3125 10.4375 L 336.875 21.417969 C 336.824219 22.195312 336.632812 22.847656 336.292969 23.382812 C 335.953125 23.867188 335.492188 24.277344 334.914062 24.621094 C 334.378906 24.910156 333.800781 25.125 333.171875 25.273438 C 332.539062 25.417969 331.910156 25.492188 331.28125 25.492188 C 329.296875 25.492188 327.53125 25.683594 325.980469 26.070312 C 324.433594 26.460938 323.125 27.164062 322.058594 28.183594 C 321.042969 29.152344 320.269531 30.460938 319.738281 32.109375 C 319.203125 33.707031 318.933594 35.746094 318.933594 38.21875 L 318.933594 41.78125 L 336.582031 41.78125 L 336.582031 57.199219 L 319.664062 57.199219 L 319.664062 117.050781 Z M 297.148438 117.050781 " fill-opacity="1" fill-rule="nonzero"/></g><path fill="#ffffff" d="M 472.179688 41.402344 L 431.75 136.566406 C 431.070312 138.070312 430.242188 139.167969 429.269531 139.84375 C 428.300781 140.574219 426.742188 140.9375 424.597656 140.9375 L 407.667969 140.9375 L 422.261719 110.335938 L 392.054688 41.402344 L 412.050781 41.402344 C 413.800781 41.402344 415.136719 41.792969 416.0625 42.570312 C 417.035156 43.347656 417.742188 44.269531 418.179688 45.339844 L 430.582031 77.910156 C 431.75 80.871094 432.699219 83.910156 433.429688 87.019531 C 433.964844 85.464844 434.5 83.910156 435.035156 82.355469 C 435.570312 80.800781 436.128906 79.269531 436.714844 77.765625 L 447.949219 45.339844 C 448.390625 44.222656 449.167969 43.300781 450.285156 42.570312 C 451.40625 41.792969 452.621094 41.402344 453.933594 41.402344 Z M 472.179688 41.402344 " fill-opacity="1" fill-rule="nonzero"/><g clip-path="url(#332ca44891)"><path fill="#ffffff" d="M 499.394531 49.726562 C 500.84375 48.367188 502.34375 47.105469 503.890625 45.9375 C 505.4375 44.777344 507.082031 43.804688 508.824219 43.027344 C 510.613281 42.203125 512.519531 41.574219 514.550781 41.136719 C 516.632812 40.648438 518.878906 40.410156 521.296875 40.410156 C 525.410156 40.410156 529.035156 41.136719 532.179688 42.59375 C 535.371094 44 538.054688 45.988281 540.226562 48.558594 C 542.40625 51.082031 544.046875 54.117188 545.160156 57.660156 C 546.273438 61.152344 546.832031 64.960938 546.832031 69.085938 L 546.832031 117.050781 L 524.34375 117.050781 L 524.34375 69.085938 C 524.34375 65.394531 523.496094 62.535156 521.804688 60.496094 C 520.113281 58.410156 517.621094 57.367188 514.332031 57.367188 C 511.867188 57.367188 509.546875 57.902344 507.375 58.96875 C 505.242188 59.988281 503.164062 61.394531 501.136719 63.1875 L 501.136719 117.050781 L 478.648438 117.050781 L 478.648438 41.574219 L 492.574219 41.574219 C 495.378906 41.574219 497.214844 42.832031 498.085938 45.359375 Z M 499.394531 49.726562 " fill-opacity="1" fill-rule="nonzero"/></g><path fill="#ffffff" d="M 245.882812 41.402344 C 251.421875 41.402344 256.464844 42.277344 261.023438 44.019531 C 265.578125 45.761719 269.496094 48.261719 272.757812 51.511719 C 276.019531 54.765625 278.558594 58.722656 280.367188 63.367188 C 282.171875 68.027344 283.066406 73.238281 283.066406 79.039062 C 283.066406 84.902344 282.171875 90.160156 280.367188 94.875 C 278.558594 99.5625 276.019531 103.542969 272.757812 106.820312 C 269.496094 110.09375 265.578125 112.621094 261.023438 114.386719 C 256.464844 116.152344 251.421875 117.050781 245.882812 117.050781 C 240.292969 117.050781 235.222656 116.152344 230.640625 114.386719 C 226.066406 112.621094 222.125 110.09375 218.8125 106.820312 C 215.503906 103.542969 212.945312 99.558594 211.136719 94.875 C 209.332031 90.160156 208.414062 84.902344 208.414062 79.039062 C 208.414062 73.238281 209.328125 68.027344 211.136719 63.367188 C 212.945312 58.71875 215.503906 54.765625 218.8125 51.511719 C 222.125 48.261719 226.066406 45.757812 230.640625 44.019531 C 235.222656 42.277344 240.292969 41.402344 245.882812 41.402344 Z M 245.882812 57.6875 C 240.71875 57.6875 236.9375 59.453125 234.542969 62.992188 C 232.152344 66.523438 230.953125 71.921875 230.953125 79.179688 C 230.953125 86.460938 232.152344 91.878906 234.542969 95.4375 C 236.9375 98.996094 240.71875 100.765625 245.882812 100.765625 C 250.90625 100.765625 254.617188 98.996094 256.984375 95.4375 C 259.351562 91.878906 260.527344 86.460938 260.527344 79.179688 C 260.527344 71.921875 259.355469 66.523438 256.984375 62.992188 C 254.617188 59.453125 250.902344 57.6875 245.882812 57.6875 Z M 245.882812 57.6875 " fill-opacity="1" fill-rule="nonzero"/><g clip-path="url(#c0ab128455)"><path fill="#d9f323" d="M 94.996094 41.519531 C 107.542969 41.203125 120.5 41.636719 135.753906 41.636719 C 133.164062 49.574219 131.003906 53.523438 128.570312 61.476562 L 128.605469 61.65625 C 130.21875 69.800781 132.261719 80.113281 129.945312 89.90625 C 125.292969 109.558594 106.304688 119.832031 83.71875 116.394531 C 65.707031 113.648438 52.683594 97.488281 53.152344 78.476562 C 53.597656 60.558594 64.914062 46.273438 81.554688 42.632812 C 84.855469 41.835938 88.386719 41.441406 92.144531 41.441406 C 93.109375 41.441406 94.0625 41.46875 94.996094 41.519531 Z M 92.039062 57.691406 C 86.886719 57.691406 83.117188 59.457031 80.730469 62.992188 C 78.339844 66.527344 77.144531 71.921875 77.144531 79.179688 C 77.144531 86.460938 78.339844 91.878906 80.730469 95.4375 C 83.117188 98.996094 86.886719 100.765625 92.039062 100.765625 C 97.050781 100.765625 100.753906 98.996094 103.117188 95.4375 C 105.484375 91.878906 106.65625 86.460938 106.65625 79.179688 C 106.65625 71.921875 105.484375 66.527344 103.117188 62.992188 C 100.753906 59.457031 97.050781 57.691406 92.039062 57.691406 Z M 92.039062 57.691406 " fill-opacity="1" fill-rule="nonzero"/></g><path fill="#ffffff" d="M 246.070312 41.402344 C 249.632812 41.402344 252.996094 41.765625 256.152344 42.488281 C 265.472656 43.871094 273.304688 49.695312 279.179688 57.105469 C 281.449219 59.964844 283.035156 63.316406 283.675781 66.910156 C 284.945312 74 285.855469 82.109375 284.007812 89.894531 C 279.34375 109.554688 260.28125 119.835938 237.613281 116.394531 C 219.535156 113.644531 206.460938 97.480469 206.933594 78.464844 C 207.375 60.503906 218.777344 46.1875 235.527344 42.578125 C 238.816406 41.792969 242.328125 41.402344 246.070312 41.402344 Z M 245.964844 57.664062 C 240.789062 57.664062 237.007812 59.433594 234.609375 62.96875 C 232.214844 66.503906 231.011719 71.902344 231.011719 79.160156 C 231.011719 86.445312 232.214844 91.863281 234.609375 95.425781 C 237.007812 98.984375 240.789062 100.757812 245.964844 100.757812 C 250.992188 100.757812 254.710938 98.988281 257.082031 95.425781 C 259.457031 91.863281 260.632812 86.445312 260.632812 79.160156 C 260.632812 71.902344 259.457031 66.503906 257.082031 62.96875 C 254.710938 59.433594 250.992188 57.664062 245.964844 57.664062 Z M 245.964844 57.664062 " fill-opacity="1" fill-rule="nonzero"/></svg>